<?xml version="1.0" encoding="UTF-8" standalone="no"?>
<svg
   xmlns:dc="http://purl.org/dc/elements/1.1/"
   xmlns:cc="http://creativecommons.org/ns#"
   xmlns:rdf="http://www.w3.org/1999/02/22-rdf-syntax-ns#"
   xmlns:svg="http://www.w3.org/2000/svg"
   xmlns="http://www.w3.org/2000/svg"
   id="svg212"
   version="1.1"
   viewBox="0 0 132.29167 79.374998"
   height="300"
   width="500">
  <defs
     id="defs206" />
  <metadata
     id="metadata209">
    <rdf:RDF>
      <cc:Work
         rdf:about="">
        <dc:format>image/svg+xml</dc:format>
        <dc:type
           rdf:resource="http://purl.org/dc/dcmitype/StillImage" />
        <dc:title></dc:title>
      </cc:Work>
    </rdf:RDF>
  </metadata>
  <g
     transform="translate(0,-217.62501)"
     id="layer1">
    <g
       id="layer1-6"
       transform="translate(-33.430823,207.43762)">
      <flowRoot
         xml:space="preserve"
         id="flowRoot10"
         style="font-style:normal;font-weight:normal;font-size:40px;line-height:1.25;font-family:sans-serif;letter-spacing:0px;word-spacing:0px;fill:#000000;fill-opacity:1;stroke:none"><flowRegion
           id="flowRegion12"><rect
             id="rect14"
             width="668.57141"
             height="262.85715"
             x="128.57143"
             y="153.94826" /></flowRegion><flowPara
           id="flowPara16" /></flowRoot>      <g
         aria-label="Lord  RingS"
         style="font-style:normal;font-weight:normal;font-size:10.58333302px;line-height:1.25;font-family:sans-serif;letter-spacing:0px;word-spacing:0px;fill:#000000;fill-opacity:1;stroke:none;stroke-width:0.26458332"
         id="text20">
        <path
           d="m 56.943293,52.739975 q 0.01929,0.30868 -0.106109,0.810286 -0.163987,0.578776 -0.395497,1.745974 -0.163987,1.13826 -0.511252,1.157553 -0.385851,0.0096 -0.819933,-0.0096 -0.56913,-0.02894 -1.012858,-0.02894 -1.032151,0 -1.649512,-0.02894 -0.617361,-0.02894 -0.501606,-0.02894 -0.463021,0 -1.147906,0.04823 -0.05788,-0.0096 -0.144694,-0.04823 -0.183279,-0.04823 -1.929253,-0.04823 h -1.765267 q -0.02894,0 -0.173633,-0.03859 -0.144694,-0.02894 -0.221864,-0.02894 0.03858,-0.173633 0.106109,-0.472667 0.212218,-0.03859 0.588422,-0.154341 0.385851,-0.183279 0.598069,-0.636653 0.115755,-0.115756 0.250803,-0.347266 0.0096,-0.144694 -0.05788,-0.453375 -0.05788,-0.30868 -0.05788,-0.453374 0.09646,0.01929 0.443729,-0.299034 -0.01929,-0.02894 -0.154341,-0.308681 -0.0096,-0.01929 -0.15434,-0.02894 -0.192925,-0.173633 0.08682,-0.540191 0.163986,-0.212218 0.163986,-0.56913 0,-0.212218 -0.07717,-0.588422 -0.06752,-0.385851 -0.06752,-0.49196 0,-0.04823 0.04823,-0.163986 0.04823,-0.115755 0.04823,-0.15434 v -0.897103 q 0,-0.02894 0.05788,-0.221864 0.05788,-0.192926 0.06752,-0.299035 0,-0.04823 -0.08682,-0.376204 0.0096,0.02894 0.04823,-0.385851 0.0096,-0.09646 -0.02894,-0.250803 -0.04823,-0.192925 -0.04823,-0.270095 -0.0096,-0.135048 0.04823,-0.520899 0.05788,-0.424436 0.06752,-0.549837 0,-0.163987 -0.02894,-0.511252 -0.02894,-0.347266 -0.02894,-0.356912 v -0.926042 q 0,-0.05788 0.05788,-0.15434 0,0 -0.05788,-1.032151 -0.02894,-0.424436 0.01929,-0.655946 0.02894,-0.125401 0.02894,-0.260449 0,-0.260449 -0.106109,-0.636654 -0.08682,-0.289388 -0.173633,-0.588422 -0.0096,-0.01929 0.0096,-0.520899 0,0.0096 -0.06752,-2.112532 -0.02894,-0.154341 -0.08682,-0.482314 0,-0.0096 0.04823,-0.38585 0.0096,-0.06752 -0.04823,-0.221865 -0.05788,-0.163986 -0.06752,-0.221864 0.0096,0.05788 0.08682,-0.559483 -0.154341,-0.299034 -0.56913,-0.80064 -0.115755,-0.08682 -0.366558,-0.106109 -0.318327,-0.02894 -0.385851,-0.04823 -0.04823,-0.06752 0,-0.250803 0.04823,-0.173632 0.135048,-0.221864 0.405143,-0.02894 0.385851,-0.02894 0.810286,0.05788 2.459798,0.135048 0.414789,0.01929 0.337619,0.01929 1.533757,-0.163987 1.466233,-0.163987 h 1.389062 q 0.01929,0.192925 -0.106109,0.472667 -0.337619,0.06752 -1.012858,0.192926 -0.636653,0.106109 -0.935688,0.945334 -0.07717,0.241157 -0.173632,0.897103 -0.115756,0.945334 -0.115756,1.340831 v 9.675206 q 0,0.03858 0.01929,0.212218 0.01929,0.173633 0.01929,0.231511 0.02894,0.588422 0,1.041797 -0.03858,0.655946 0.163987,0.713823 -0.0096,-0.02894 -0.04823,0.598069 -0.0096,0 -0.04823,0.03858 0.26045,1.225076 0.26045,1.418001 -0.135048,0.202572 -0.289388,0.655947 -0.0096,0.115755 0.260449,0.810286 0.376204,0.01929 1.128613,0.08682 0.135048,0.01929 0.41479,0.231511 0.04823,-0.06752 0.202571,-0.231511 0.241157,-0.0096 0.675239,0.03859 0.472667,0.03858 0.684885,0.03858 0.03858,0 0.173633,-0.08682 0.135047,-0.07717 0.202571,-0.09646 0.26045,-0.04823 0.762055,-0.192926 0.106109,-0.03858 0.356912,-0.405143 0.366559,-0.520899 0.366559,-0.520899 0.559483,-0.684885 0.549837,-1.225076 0.192925,0.03859 0.540191,0.144695 z M 48.618564,41.666059 q -0.0096,-0.241156 -0.0096,-0.530544 0,-0.279742 0.01929,-0.848872 0.01929,-0.56913 0.01929,-0.848872 0,-1.244368 -0.299035,-1.967838 -0.05788,0.106109 -0.01929,0.414789 0.02894,0.221865 0.05788,0.443729 0.03858,1.215429 0.231511,3.337608 z"
           style="font-style:normal;font-variant:normal;font-weight:normal;font-stretch:normal;font-size:19.75555611px;font-family:Ringbearer;-inkscape-font-specification:Ringbearer;fill:#ffcc00;stroke-width:0.26458332"
           id="path144" />
        <path
           d="m 64.83394,45.457042 q 0,0.549838 -0.02894,0.839226 -0.09646,0.221864 -0.202571,0.684885 -0.01929,0.463021 -0.202572,0.983919 -0.15434,0.192925 -0.453375,0.627007 -0.07717,0.289388 -0.424435,0.829579 -0.279742,0.279742 -0.848872,0.868165 -0.08682,0.02894 -0.221864,0.09646 -0.125401,0.115755 -0.443728,0.33762 -1.581988,0.839225 -3.009636,0.95498 H 57.72464 q 0.01929,0 -0.07717,-0.05788 -1.041797,-0.02894 -1.562696,-0.289388 -0.135047,-0.02894 -0.366558,-0.09646 -0.38585,-0.154341 -1.157552,-0.549838 -0.926042,-0.588422 -1.736328,-1.659158 -0.453375,-0.598068 -0.80064,-1.543402 -0.327973,-0.877811 -0.366558,-1.475879 -0.06752,-1.022505 0.07717,-2.006424 0.05788,-0.125401 0.15434,-0.356912 0.05788,-0.289388 0.202572,-0.839225 0.212217,-0.33762 0.559483,-0.983919 0.04823,-0.106109 0.04823,-0.250803 0.04823,-0.04823 0.192926,0.02894 0.04823,-0.135047 0,-0.38585 0.125401,-0.03858 0.356912,-0.163987 0.07717,-0.202571 0.366558,-0.49196 0.578776,-0.30868 1.745974,-0.906749 0.299035,-0.144694 0.762055,-0.250803 1.176845,-0.270095 1.601281,-0.270095 h 0.752409 q 0.87781,0 1.504818,0.163986 0.337619,0.09646 1.485525,0.540191 0.241156,0.154341 0.762055,0.482314 0.752409,0.482313 1.36977,1.321538 0.549837,0.752409 0.713824,1.389063 0.07717,0.106109 0.192925,0.318327 0.212218,0.578776 0.241157,1.717035 0,0.03859 0.03858,0.18328 0.04823,0.135047 0.04823,0.212217 z m -2.141471,0.250803 q -0.08682,-1.215429 -0.472667,-2.218641 -0.49196,-1.2926 -1.157553,-2.035363 -0.945334,-1.041797 -2.064301,-1.225076 -1.061089,-0.173632 -1.456586,-0.115755 -0.771702,0.09646 -1.311893,0.33762 -0.06752,0.02894 -0.87781,0.511252 -0.04823,0.09646 -0.173633,0.23151 -0.07717,0.01929 -0.173633,0.05788 -0.192925,0.250803 -0.482313,0.675238 -0.03859,0.115756 -0.125401,0.327974 -0.144694,0.23151 -0.308681,0.549837 -0.08682,0.356912 -0.270096,1.070736 0.0096,0.270095 -0.0096,0.819932 0,0.02894 -0.03858,0.125402 -0.03859,0.09646 -0.02894,0.135048 0.135048,0.627007 0.385851,1.736328 -0.02894,0.07717 -0.03858,0.183279 0.06752,0.135048 0.192925,0.366558 0.0096,0.125401 0.05788,0.327973 0.405143,0.810287 0.424436,0.829579 0.289388,0.501606 0.790994,0.954981 0.0096,0.0096 0.125401,0.395497 0.03859,0.0096 0.327973,0.05788 0.472667,0.434082 0.72347,0.588422 0.713824,0.424436 2.5852,0.26045 0.15434,-0.04823 0.405143,-0.125402 0.318327,-0.06752 0.916396,-0.318327 0.135047,-0.125401 0.356912,-0.299034 0.964626,-0.598069 1.147905,-1.475879 0.09646,-0.115755 0.231511,-0.327973 0.01929,-0.183279 0.05788,-0.434082 0.05788,-0.05788 0.115756,-0.183279 0.01929,-0.221864 0.09646,-0.964627 0.06752,-0.598068 0.04823,-0.819933 z"
           style="font-style:normal;font-variant:normal;font-weight:normal;font-stretch:normal;font-size:19.75555611px;font-family:Ringbearer;-inkscape-font-specification:Ringbearer;fill:#ffcc00;stroke-width:0.26458332"
           id="path146" />
        <path
           d="m 76.814604,51.264096 q -0.07717,0.106108 -0.250803,0.260449 -0.434082,0.241156 -0.627007,0.241156 h -1.157552 q -0.588422,0 -0.87781,-0.04823 -0.212218,-0.07717 -0.6463,-0.221864 -0.366559,-0.115755 -1.282954,-1.157552 -0.07717,-0.08682 -0.752409,-1.244369 -0.607715,-1.051443 -0.95498,-1.765267 -0.08682,-0.270095 -0.308681,-0.694531 -0.09646,-0.106109 -0.482313,-0.07717 -0.241157,0.02894 -0.49196,0.05788 -0.318327,-0.01929 -0.945334,-0.0096 -0.06752,0 -0.163987,0.115756 0.03858,0.376204 0.09646,2.363335 0.0096,0.385851 0.15434,1.012858 0,0.173633 0.09646,0.511252 0.202571,0.347266 0.655946,0.501606 0.366558,0.106109 0.733116,0.212218 0.0096,0.106109 -0.01929,0.250803 -0.279742,0.115755 -0.56913,0.115755 h -1.012858 q -0.01929,0 -0.260449,-0.04823 -0.241157,-0.04823 -0.347266,-0.04823 -0.299034,0 -0.935688,0.04823 -0.627007,0.04823 -0.627007,0.04823 h -0.974273 q -0.144694,0 -0.347266,-0.08682 0,-0.02894 -0.02894,-0.115755 -0.01929,-0.08682 -0.01929,-0.125402 0.501606,-0.135048 0.617361,-0.192925 0.356912,-0.163987 0.578776,-0.559484 0.09646,-0.173632 0.135048,-0.887456 0,-0.115755 0.06752,-0.598069 0.05788,-0.443728 0.05788,-0.675239 0,-1.311892 0.01929,-1.418001 0.02894,-0.106109 0.183279,-0.347266 -0.06752,-0.06752 -0.173633,-0.260449 -0.04823,-0.173633 -0.04823,-0.491959 v -0.974273 q 0,-0.0096 -0.02894,-0.299035 0.0096,0.115755 0.08682,-1.273307 -0.0096,-0.01929 -0.04823,-0.06752 -0.106109,-0.376204 0.0096,-0.993566 0.03858,-0.173632 -0.125401,-1.157552 -0.0096,-0.30868 -0.173633,-0.810286 -0.212218,-0.260449 -0.549837,-0.327973 -0.289388,-0.06752 -0.56913,-0.125402 0,-0.549837 -0.02894,-0.23151 0.01929,-0.15434 0.192925,-0.163987 0.395497,-0.01929 1.263661,-0.08682 0.800641,-0.07717 0.819933,-0.07717 h 1.244369 q 0.347265,0 0.713824,-0.05788 0.366558,-0.05788 0.627007,-0.05788 0.327973,0 0.819933,0.05788 0.30868,0.06752 0.906749,0.192926 0.05788,0.03858 0.192925,0.08682 0.926042,0.144694 1.639866,0.87781 0.395497,0.41479 0.704177,1.466233 0.0096,0.15434 0.02894,0.453375 0.01929,0.241156 -0.03858,0.72347 -0.125402,1.022504 -0.482313,1.543402 -0.327974,0.482314 -1.263661,1.350478 -0.0096,0.202572 0.07717,0.356912 0.607715,1.167198 1.215429,2.334397 0.72347,1.263661 1.755621,2.151117 0.08682,0.07717 0.713824,0.250803 0.376204,0.09646 0.636654,0.04823 0.38585,-0.07717 0.549837,-0.05788 0.01929,0.06752 0.01929,0.202572 z M 71.52845,43.00689 q 0,-0.318326 -0.04823,-0.424435 -0.482313,-1.282954 -0.819932,-1.639866 -0.463021,-0.501606 -1.032151,-0.636653 -0.376204,-0.08682 -1.21543,-0.04823 -0.08682,0.0096 -0.270095,0.106109 -0.154341,1.659158 -0.192926,2.681663 0.04823,0.07717 0.09646,0.221864 0,0.135047 -0.08682,1.099674 -0.05788,0.636654 0.02894,1.273308 0.02894,0.02894 0.07717,0.08682 h 0.95498 q 0.163987,0.03859 0.347266,0.03859 0.56913,0 1.090028,-0.356912 0.530545,-0.366558 0.6463,-0.598068 0.424436,-0.790994 0.424436,-1.803853 z"
           style="font-style:normal;font-variant:normal;font-weight:normal;font-stretch:normal;font-size:19.75555611px;font-family:Ringbearer;-inkscape-font-specification:Ringbearer;fill:#ffcc00;stroke-width:0.26458332"
           id="path148" />
        <path
           d="m 87.73418,44.521354 q 0.05788,0.49196 -0.09646,1.736329 -0.09646,0.38585 -0.279741,1.128613 -0.395497,1.639865 -1.437294,2.614138 -0.405144,0.376205 -1.041797,0.752409 -0.752409,0.453375 -1.21543,0.49196 -0.05788,0.03859 -0.192925,0.08682 -1.427648,0.212218 -1.379417,0.212218 h -6.27972 q -0.07717,-0.337619 0.04823,-0.424435 0.405143,-0.144694 0.559483,-0.144694 0.05788,-0.07717 0.163987,-0.212218 0.453374,-0.472667 0.453374,-1.041797 0,-0.0096 -0.05788,-0.241157 0.03858,-0.09646 0.05788,-0.279742 -0.03858,-0.07717 -0.09646,-0.241156 -0.0096,-0.05788 0.03859,-0.212218 0.04823,-0.163987 0.05788,-0.241157 0.01929,-0.366558 0.01929,-1.157552 v -1.090028 q -0.0096,-1.109321 0.01929,-3.221854 0,-0.02894 -0.04823,-0.125401 -0.04823,-0.106109 -0.04823,-0.15434 0,-0.154341 0.04823,-0.472668 0.04823,-0.327973 0.04823,-0.491959 0,-0.03858 -0.05788,-0.144694 -0.05788,-0.106109 -0.07717,-0.173633 0.0096,-0.183279 -0.02894,-0.559484 -0.163987,-0.6463 -0.49196,-0.819932 -0.270095,-0.135048 -0.926042,-0.231511 -0.0096,-0.05788 -0.0096,-0.250803 0.41479,-0.202571 0.829579,-0.115755 0,0 0.06752,0.05788 0.06752,0.04823 0.115755,0.03858 0.06752,-0.03858 0.163987,-0.09646 0.318327,-0.0096 0.636653,-0.01929 0.347266,0.0096 0.540191,0.289388 0.02894,0 0.06752,-0.0096 0.08682,-0.144694 0.289388,-0.376204 0.231511,0.03858 0.6463,0.09646 0.01929,0.0096 0.07717,-0.05788 0.06752,-0.06752 0.115756,-0.08682 0.299034,-0.09646 0.897102,-0.09646 h 2.450152 q 1.591635,0.356912 2.247581,0.6463 1.244368,0.540191 2.045009,1.659158 0.163986,0.212218 0.453374,0.684885 0.424436,0.839225 0.607715,2.295811 z m -0.434082,-0.0096 q -1.176845,-0.07717 -1.659158,-0.05788 -0.07717,-0.03858 -0.05788,-0.327973 -0.173633,-0.424436 -0.549837,-1.21543 -0.511252,-1.041797 -1.128613,-1.649512 -0.617361,-0.617361 -2.006424,-0.868164 -0.627007,-0.106109 -0.56913,-0.106109 h -0.993565 q -0.03858,0 -0.530545,0.09646 -0.49196,0.08682 -0.655946,0.106109 -0.135048,0.675238 -0.106109,1.466232 0.01929,0.376205 0.01929,1.533757 v 3.810276 q 0,-0.0096 -0.02894,0.327973 -0.01929,0.299034 0,0.443728 0.04823,0.559483 0.04823,0.482313 -0.02894,0.385851 -0.0096,0.6463 0,0.05788 0.05788,0.26045 0.04823,0.163986 0.03858,0.250802 -0.0096,0.0096 -0.318327,0.125402 -0.221864,0.09646 -0.270095,0.250803 0.163987,0.144694 0.434082,0.173633 0.192925,0.0096 0.385851,0.0096 1.9389,0.221864 2.24758,0.221864 0.916396,0 1.620573,-0.279742 0.617361,-0.250803 1.012858,-0.655946 0.848872,-0.858518 1.128613,-2.131825 0.135048,-0.617361 0.192926,-2.054655 0,-0.115755 -0.173633,-0.327973 -0.01929,-0.135048 0.05788,-0.15434 0.144694,-0.04823 0.598068,-0.106109 0.395497,-0.03858 1.128614,-0.125402 0.08682,-0.06752 0.08682,-0.144694 z"
           style="font-style:normal;font-variant:normal;font-weight:normal;font-stretch:normal;font-size:19.75555611px;font-family:Ringbearer;-inkscape-font-specification:Ringbearer;fill:#ffcc00;stroke-width:0.26458332"
           id="path150" />
        <path
           d="m 116.45112,53.926465 q 0,0.115756 -0.01,0.231511 -0.0193,0.144694 -0.14469,0.183279 -0.11576,0.04823 -0.49196,0.09646 -0.1254,0.01929 -0.53055,0.144694 -0.36655,0.115755 -0.54983,0.115755 -0.0675,0 -0.12541,-0.01929 -0.0579,-0.0096 -0.18327,-0.106109 -0.16399,-0.115755 -0.13505,-0.192925 -0.10611,-0.05788 -0.40515,0.02894 0.20258,0.106109 0.49196,0.270095 -0.72347,0.03858 -0.97427,-0.135047 0.0193,-0.08682 0.0675,-0.270096 -0.01,-0.0096 -0.0579,-0.03858 0.0482,-0.0096 -0.81029,-0.08682 0,-0.0096 -0.0675,0.04823 0.0772,0.03858 0.22186,0.106109 -0.43408,0.01929 -0.54984,-0.05788 -0.11575,-0.15434 -0.23151,-0.299034 -0.22186,-0.250803 -0.39549,-0.212218 -0.22187,-0.299034 -1.05145,-1.109321 -0.72347,-0.694531 -0.75241,-0.848871 -0.0965,-0.05788 -0.24115,-0.202572 -0.1447,-0.183279 -0.34727,-0.56913 -0.0386,-0.09646 -0.15434,-0.106109 -0.13505,-0.424435 -0.59807,-0.742762 0.0772,-0.115755 0.0193,-0.202572 -0.24116,-0.279742 -0.49196,-0.56913 -0.32798,-0.38585 -0.32798,-0.665592 0,-0.04823 0.01,-0.09646 0.0289,-0.02894 0.21222,0.0096 0.0482,0.03859 0.14469,0.106109 0.21222,-0.03858 0.33762,-0.15434 0.17363,0.15434 0.45338,0.472667 0.14469,-0.02894 0.14469,-0.173633 0,-0.250803 -0.27974,-0.241156 0.0193,-0.01929 0.0386,-0.06752 0.0289,-0.04823 0.0482,-0.05788 0.0579,0.04823 0.19293,0.135048 0.0772,0 0.11575,-0.05788 0.0289,-0.115755 0,-0.289388 -0.23151,-0.192925 -0.54019,-0.192925 -0.17363,0 -0.51125,0.08682 -0.33762,0.07717 -0.48231,0.07717 -0.18328,0 -0.31833,-0.07717 -0.33762,-0.192925 -0.44373,-0.675238 -0.0482,-0.03858 -0.1254,-0.106109 0.01,-0.03859 0.0193,-0.07717 0,-0.154341 -0.16398,-0.270096 -0.16399,-0.115755 -0.30868,-0.115755 -0.54984,0.0096 -1.48553,0 -1.09967,-0.0096 -1.48552,-0.0096 -0.0868,0 -0.0868,0.08682 -0.0193,0.559484 0,0.636654 v 1.244368 q 0,0 0.0193,0.540191 0.0193,0.540191 0.0193,0.810287 0,0.03859 -0.0482,0.15434 -0.0386,0.115755 -0.0193,0.183279 0.0868,0.125402 0.20257,0.405143 0.10611,0.704178 0.0675,0.906749 -0.13505,0.09646 -0.43409,0.308681 0,0.05788 0.0289,0.07717 0.54019,0.0096 1.72669,0.221864 0.0965,0.02894 0.28938,0.09646 0.0193,0.07717 -0.0289,0.395497 -0.15434,0.115755 -0.27009,0.115755 -0.28939,0 -1.5434,-0.183279 l -2.09324,-0.03858 q -0.20258,0.05788 -0.63666,0.115755 -0.684882,0.02894 -1.630217,0.02894 0,-0.163986 0.0096,-0.472667 0.30868,-0.125402 0.897102,-0.279742 0.308681,-0.07717 0.655945,-0.511252 0.34726,-0.424436 0.36656,-0.704178 0.1254,-1.340831 0.1254,-1.466232 v -6.92602 q 0,-0.03858 -0.0289,-0.231511 -0.0289,-0.192925 -0.0289,-0.260449 -0.01,-0.125401 0.0386,-0.588422 0.0482,-0.463021 0.0482,-0.733117 0,-0.115755 -0.0386,-0.443728 -0.0482,-0.366558 -0.0482,-0.530545 -0.0193,-0.279741 -0.10611,-0.819932 -0.0675,-0.135048 -0.18328,-0.41479 -0.0868,-0.337619 -0.762049,-0.520898 -0.08682,-0.03859 -0.299035,-0.125402 -0.173633,0 -0.491959,-0.01929 -0.231511,-0.154341 -0.06752,-0.463021 0.279741,-0.06752 0.829579,-0.154341 1.562694,-0.125401 1.803854,-0.125401 h 1.37942 q 0.0386,0 0.54019,-0.05788 0.51125,-0.05788 0.55948,-0.05788 h 0.7717 q 0.0482,0 0.30868,0.02894 0.29904,0.02894 0.41479,0.03859 0.18328,-0.02894 0.53055,-0.04823 0.99356,0.125402 2.24758,0.41479 0.46302,0.106109 1.87137,1.225076 0.0482,0.07717 0,0.212218 -0.16398,0.163986 -0.66559,0.424435 -0.49196,0.250803 -0.66559,0.434082 0.0193,0.115756 0.22186,0.144694 0.17364,0.01929 0.31833,-0.02894 0.0193,-0.05788 0.11576,-0.125402 0.27009,-0.04823 0.38585,-0.04823 0.0482,0.163986 0.22186,0.337619 0.15434,-0.04823 0.15434,-0.202571 -0.01,-0.144694 -0.14469,-0.270096 0.13504,-0.03858 0.27974,0 0.20257,0.05788 0.35691,0.05788 0.0965,0.501606 0.20257,1.003212 0.13505,0.675238 0.13505,1.128613 0,0.385851 -0.0868,0.704177 -0.13504,0.520899 -0.55948,1.543403 -0.2508,0.443729 -0.94533,1.282954 -0.0193,0.02894 -0.90675,0.704177 0.27009,0.511253 0.76205,1.128614 0.38585,0.482313 0.59807,0.87781 0.23151,0.434082 0.35691,0.607715 0.0193,0.06752 0.0675,0.173633 0.54019,0.655946 1.55304,1.958192 0.0289,0.05788 0,0.106109 0.40515,0.308681 1.01286,0.87781 0.2701,0.270096 0.74277,0.819933 -0.30869,0.02894 -0.30869,0.289388 0,0.241157 0.24116,0.337619 0.0482,-0.347265 0.29904,-0.347265 0.0386,0 0.0772,0.0096 0.0386,0.0096 0.47266,0.221864 0.6463,0.318327 1.2926,0.636654 0.27974,0.115755 0.76206,0.125401 z m -8.33438,-5.498372 q -0.11575,0.135048 -0.22186,0.106109 0.0193,-0.106109 0.13505,-0.15434 0.0193,0.0096 0.0868,0.04823 z m 0.57878,-5.97104 q -0.26045,-0.08682 -0.26045,-0.260449 V 41.1741 q 0,-0.04823 -0.0289,-0.115756 -0.0289,-0.07717 -0.0386,-0.106109 -0.0579,-0.617361 -0.61737,-1.398708 -0.61736,-0.858518 -1.28295,-0.993566 -0.0965,-0.05788 -0.26045,-0.125401 -0.97427,-0.202572 -1.09967,-0.202572 h -0.84887 q -0.48232,0 -0.87781,0.125401 -0.0386,0.01929 -0.22187,0.231511 0.0675,0.56913 0.0579,0.636654 0,0.0096 -0.0386,0.05788 -0.0289,0.04823 -0.0289,0.09646 v 1.340831 q 0,0.04823 -0.0579,0.173633 -0.0579,0.115755 -0.0482,0.173633 0.0579,0.23151 0.1254,0.453374 0.0675,0.250803 0,0.443729 -0.15434,0.453374 -0.0386,1.205783 -0.0193,-0.15434 -0.0193,0.453375 v 1.379416 q 0,0.125401 -0.0289,0.30868 -0.0193,0.135048 -0.01,0.221865 0.0289,0.125401 0.12541,0.337619 0.23151,0.06752 0.67524,0.163986 l 1.88102,0.03859 q 0.29903,-0.125402 0.90675,-0.356912 0.23151,-0.06752 0.60771,-0.250803 0.56913,-0.520899 0.81029,-0.974273 0.20257,-0.366558 0.30868,-0.98392 0.01,-0.183279 0.0675,-0.559483 0.0193,-0.144694 0.0675,-0.376205 0.0482,-0.144694 0.17363,-0.115755 z"
           style="font-style:normal;font-variant:normal;font-weight:normal;font-stretch:normal;font-size:19.75555611px;font-family:Ringbearer;-inkscape-font-specification:Ringbearer;fill:#ffcc00;stroke-width:0.26458332"
           id="path152" />
        <path
           d="m 116.78873,40.45063 q -0.0386,0.144694 -0.1254,0.405143 0,0 -0.57877,0.125401 -0.36656,0.08682 -0.46302,0.327973 -0.0772,0.115756 -0.19293,0.327973 -0.0193,0.06752 -0.2508,1.118968 l -0.0386,4.051432 q -0.0675,0.250803 -0.0675,0.270095 0,0 0.0675,0.202572 l -0.0193,1.495172 q -0.0675,0.30868 0,0.848871 0.0675,0.627007 0.2701,1.022504 0.0675,0.135048 0.33762,0.299035 0.5016,0.289388 1.00321,0.279741 -0.01,0.125402 -0.10611,0.366559 h -1.11897 q -0.0289,0 -0.33762,-0.01929 -0.29903,-0.01929 -0.31833,-0.01929 -0.0289,0 -0.26044,0.01929 -0.23151,0.01929 -0.25081,0.01929 -0.0193,0 -0.18328,-0.01929 -0.15434,-0.01929 -0.18328,-0.01929 -0.0289,0 -0.13504,0.01929 -0.0965,0.01929 -0.1254,0.01929 l -2.01607,0.04823 q -0.26045,0 -0.26045,-0.192925 0,-0.221865 0.13504,-0.26045 0.30868,-0.05788 0.61736,-0.106109 0.35692,-0.07717 0.46303,-0.260449 0.0386,-0.115755 0.11575,-0.356912 0.13505,0.0096 0.41479,0.05788 0.0965,-0.395497 0.0965,-0.511252 0,-0.106109 -0.0965,-0.289388 0.0772,-0.192926 0.0289,-0.327973 -0.0386,-0.09646 -0.18328,-0.327973 -0.1254,-0.202572 -0.1254,-0.231511 0,0.06752 0.16399,-0.578776 0.0193,-0.07717 -0.0579,-0.221864 0.16398,-0.270096 0.16398,-0.366558 0,-0.01929 -0.0482,-0.627008 0,-0.04823 -0.0675,-0.183279 -0.0675,-0.135047 -0.0675,-0.163986 0,-0.03858 0.0772,-0.135048 -0.0193,0.03858 -0.0193,-0.106109 V 45.28341 q 0,-0.02894 0.0386,-0.173633 0.0482,-0.144694 0.0482,-0.173633 0,-0.01929 -0.0289,-0.06752 -0.0289,-0.05788 -0.0289,-0.08682 0,0.03858 0.0289,-0.434082 0,-0.09646 -0.0193,-0.318327 -0.0193,-0.221864 -0.0193,-0.221864 v -0.762055 q 0,-0.106109 -0.13505,-0.308681 0.0386,-0.106109 -0.0579,-0.395497 -0.01,-0.135048 -0.0772,-0.405143 -0.0772,-0.08682 -0.19293,-0.250803 -0.0386,-0.09646 -0.13504,-0.289388 -0.19293,-0.299035 -0.36656,-0.385851 -0.22187,-0.05788 -0.66559,-0.212218 0.0289,-0.135048 0.1061,-0.347265 h 0.0868 q 0.0289,0 0.17363,0.01929 0.15434,0.01929 0.18328,0.01929 z"
           style="font-style:normal;font-variant:normal;font-weight:normal;font-stretch:normal;font-size:19.75555611px;font-family:Ringbearer;-inkscape-font-specification:Ringbearer;fill:#ffcc00;stroke-width:0.26458332"
           id="path154" />
        <path
           d="m 126.599,47.164432 -0.0868,0.106109 -0.0579,-0.05788 0.0482,-0.202571 q 0.16399,0.15434 0.0965,0.15434 z m 3.57876,-7.369749 q -0.18328,0.02894 -0.53054,0.09646 -0.36656,0.106109 -0.57878,0.463021 -0.29903,0.530545 -0.36656,1.041797 -0.1254,0.887456 -0.1254,1.44694 0,0.03859 0.0386,0.839225 0.0386,0.790994 0.0386,0.839225 v 1.533757 q 0,0.02894 0.0289,0.192925 0.0386,0.163987 0.0289,0.250803 -0.0579,1.167199 -0.0579,1.311893 0,0.07717 0.0386,0.318327 0.0386,0.23151 0.0386,0.270095 v 2.961404 q 0,0.05788 0.01,0.06752 0.0193,0 0.0193,0.0096 -0.67524,0.115756 -0.60772,0.115756 -0.40514,0 -0.5016,-0.08682 -0.66559,-0.617361 -1.96784,-2.160764 -0.23151,-0.30868 -0.69453,-0.887456 -0.40514,-0.395497 -1.09968,-1.157553 -0.17363,-0.289388 -0.57877,-0.858517 -0.86817,-1.051444 -2.4598,-3.096452 -0.21222,-0.163987 -0.57878,-0.520899 -0.01,-0.06752 -0.0579,-0.192925 -0.11576,-0.183279 -0.38585,-0.549837 -0.20258,0.09646 -0.20258,0.299034 0,-0.0096 0.13505,0.983919 0.01,0.05788 -0.0193,0.183279 -0.0289,0.115756 -0.0289,0.154341 0,0.38585 0.0289,1.196137 0.0386,0.80064 0.0386,0.781348 v 1.350477 q 0,0.05788 0.01,0.983919 0.0193,0.926042 0.0193,0.974273 0,2.01607 1.4373,2.122179 0.0289,0 0.0675,0.08682 0.0482,0.07717 0.0675,0.09646 0.01,0.173633 -0.0482,0.289388 h -3.36654 q -0.0386,0 -0.35692,0.04823 -0.30868,0.05788 -0.35691,0.05788 h -0.15434 q -0.0868,-0.08682 -0.0868,-0.106109 0,-0.337619 0.21221,-0.453374 0.25081,-0.07717 0.73312,-0.289388 0.47267,-0.26045 0.56913,-0.829579 0.2508,-1.398709 0.10611,-1.70739 -0.0675,-0.135047 -0.0193,-0.23151 0,0 0.0772,-0.09646 0,0 -0.0579,-0.08682 -0.01,-0.106109 0.01,-0.366558 0.0193,-0.270096 0.0193,-0.385851 0,-0.135048 -0.0579,-0.463021 -0.0482,-0.327973 -0.0482,-0.463021 0,0.144694 0.0386,-0.598068 -0.01,-0.02894 -0.0868,-0.192926 l 0.0482,-0.04823 q 0.0386,-0.05788 0.0482,-0.212218 0.0193,-0.02894 0,-0.06752 -0.13505,-1.090028 -0.13505,-1.466232 v -1.331185 q 0,0 -0.0386,-0.56913 -0.0289,-0.56913 -0.0289,-0.819933 0,-0.02894 0.0289,-0.125401 0.0386,-0.09646 0.0289,-0.163987 -0.73312,-0.771701 -1.84244,-0.694531 l -0.0482,-0.04823 v -0.318326 q 0.10611,-0.125402 0.5209,-0.125402 0.0482,0 0.7717,0.03859 0.73311,0.03858 0.78134,0.03858 0.0386,0 0.71383,-0.03858 0.68488,-0.03859 0.73311,-0.03859 0.23151,0 0.2701,0.01929 0.13505,0.04823 0.55948,0.627007 0.80064,1.128613 2.41157,3.356901 0.32797,0.41479 0.98392,1.234722 -0.11576,0.848872 0.24116,0.848872 0.0386,0 0.15434,-0.05788 0.11575,-0.05788 0.16398,-0.05788 0.1254,0 0.33762,0.356912 0.10611,0.183279 0.20257,0.356912 0.70418,0.569129 0.87781,0.868164 0.0386,0.163986 0.13505,0.482313 0.0772,0.106109 0.1254,0.106109 0.0482,0 0.0965,-0.03859 0.0482,-0.03858 0.0579,-0.03858 0.26045,0.279742 0.70418,0.819933 0.16399,-0.07717 0.16399,-0.144694 0,-0.04823 -0.0386,-0.163987 -0.0386,-0.115755 -0.0386,-0.163987 v -1.03215 q 0,-0.04823 -0.0193,-0.135048 -0.01,-0.09646 -0.01,-0.241157 0.0386,-0.183279 0.0579,-0.520898 -0.0482,-0.279742 -0.1254,-0.819933 -0.0193,-0.07717 0.0193,-0.289388 0.0386,-0.212218 0.0386,-0.241157 0,-0.03859 -0.0289,-0.15434 -0.0289,-0.125401 -0.0289,-0.173633 -0.0193,-0.173632 0,-0.472667 0.0193,-0.376204 0.0193,-0.501606 0,-0.04823 -0.0482,-0.163986 -0.0386,-0.115755 -0.0482,-0.173633 0,0 0.0386,-0.260449 0.01,-0.07717 -0.0386,-0.299035 -0.0386,-0.221864 -0.0386,-0.337619 0,-0.03858 0.0386,-0.173633 0.0386,-0.135047 0.0289,-0.192925 -0.0579,-0.395497 -0.20257,-1.157552 -0.13505,-0.501606 -1.09967,-0.665593 0.0193,-0.163986 -0.0386,-0.347265 0.10611,-0.08682 0.68489,-0.08682 l 1.75562,0.06752 q -0.0579,0 0.86816,-0.05788 0.54984,-0.03859 0.85852,0.06752 z"
           style="font-style:normal;font-variant:normal;font-weight:normal;font-stretch:normal;font-size:19.75555611px;font-family:Ringbearer;-inkscape-font-specification:Ringbearer;fill:#ffcc00;stroke-width:0.26458332"
           id="path156" />
        <path
           d="m 140.24846,39.505295 q 0.0193,0.07717 0.0193,0.173633 0,0.212218 -0.0965,0.742763 -0.0868,0.530544 -0.0868,0.790994 0,0.135047 0.01,0.250803 -0.0482,0.173632 -0.0868,0.482313 0.0772,0.385851 0.0868,0.299034 -0.0289,0.05788 -0.0868,0.144694 0,0.09646 0.0579,0.549838 -0.24116,0.23151 -0.43408,0.23151 -0.0772,0 -0.17363,-0.115755 0.0868,-0.56913 0.0579,-0.704178 -0.0289,-0.15434 -0.11575,-0.434082 -0.19293,-0.424436 -0.71383,-0.935688 -0.20257,-0.192925 -0.94533,-0.511252 -0.0868,-0.03858 -0.62701,-0.135048 -0.34726,-0.05788 -1.0225,-0.05788 -1.90996,0 -2.99999,1.012858 -0.13505,0.06752 -0.38585,0.299034 -0.83923,1.157552 -0.95498,2.266873 -0.0482,0.463021 -0.0482,1.52411 v 0.636654 q 0,-0.05788 0.13504,0.511252 0.01,0.299034 0.0965,0.810287 0.0579,0.04823 0.19292,0.289388 0.01,0.125401 0.0675,0.327973 0.13504,0.183279 0.41479,0.549837 0.0386,0.115755 0.13504,0.327973 0.43409,0.790994 1.34083,1.311893 0.40515,0.23151 0.80064,0.327973 1.90032,0.443728 2.44051,0.443728 0.2508,0 0.49196,-0.05788 0.11576,-0.01929 0.33762,-0.115755 0.0482,-0.376204 0.0482,-0.376204 0,-0.135048 -0.1254,-0.183279 -0.17363,-0.05788 -0.23151,-0.154341 -0.0965,-0.15434 -0.01,-0.598068 0,0 0,-1.533757 -0.0579,-0.559483 -0.16398,-0.87781 -0.0579,-0.04823 -0.15434,-0.183279 -0.16399,-0.511252 -0.70418,-0.655946 -0.22187,-0.05788 -0.94534,-0.07717 -0.0289,-0.01929 -0.0868,-0.06752 v -0.250802 q 0.24115,-0.07717 0.79099,-0.07717 0.0386,0 0.67524,0.05788 0.63665,0.04823 0.67524,0.04823 0.0482,0 0.16399,-0.03859 0.11575,-0.04823 0.17363,-0.05788 0.58842,-0.04823 0.65594,-0.04823 1.36013,0 1.15756,0.0096 v 0.414789 q 0,0.02894 -0.0868,0.202572 -0.10611,0.202571 -0.1254,0.279741 -0.16399,0.665593 -0.19293,1.350478 -0.0386,0.868164 -0.0386,1.196137 0,0.665593 0.14469,1.832791 -0.44373,0.23151 -2.32475,0.617361 -0.15434,-0.0096 -0.47267,0.01929 -0.43408,0.09646 -0.60771,0.09646 -0.0482,0 -0.14469,-0.02894 -0.0965,-0.02894 -0.13505,-0.02894 -0.99357,-0.04823 -1.64951,-0.163987 -0.25081,-0.09646 -0.74277,-0.241157 -0.97427,-0.192925 -2.15111,-1.234722 -1.22508,-1.090028 -1.50482,-2.09324 -0.0868,-0.221864 -0.22187,-0.665592 -0.0772,-0.144694 -0.20257,-0.434082 -0.11575,-0.472667 -0.11575,-0.800641 0,0.02894 0.0482,-0.356911 0.0482,-0.327974 0.01,-0.463021 -0.0386,-0.154341 -0.0386,-0.327973 0,-0.327974 0.16399,-0.935688 0.19292,-0.752409 0.23151,-1.012858 0.94533,-1.70739 1.1479,-1.70739 0.0386,0 0.0579,0.03858 0.0193,0.02894 0.0675,0.02894 0.16399,0 0.26045,-0.07717 0.0386,-0.115755 0.15434,-0.318327 0.89711,-0.993566 1.09003,-0.993566 0.0482,0 0.0675,0.01929 0.0193,0.01929 0.0579,0.01929 0.0386,0 0.20257,-0.125402 0.17364,-0.135048 0.22187,-0.135048 0.0386,0 0.10611,0.03859 0.0772,0.03858 0.11575,0.03858 0.0482,0 0.85852,-0.202571 0.81029,-0.202572 0.85852,-0.202572 h 2.47909 q 0.0482,0 0.88746,0.09646 0.83922,0.08682 0.88745,0.08682 0.0193,0 0.33762,0 0.32798,0 0.47267,0 z"
           style="font-style:normal;font-variant:normal;font-weight:normal;font-stretch:normal;font-size:19.75555611px;font-family:Ringbearer;-inkscape-font-specification:Ringbearer;fill:#ffcc00;stroke-width:0.26458332"
           id="path158" />
        <path
           d="m 149.17396,52.934405 q -0.0165,0.461843 -0.58705,2.06973 -0.0413,0.119736 -0.34726,0.547365 -0.78548,1.094736 -1.3808,1.325655 -0.14056,0.09407 -0.43821,0.248026 -0.90124,0.359209 -2.29857,0.359209 -0.39687,0 -0.7276,-0.04278 -0.0248,-0.188159 0.0661,-0.461839 -0.3638,-0.367763 -0.63665,-0.367763 -0.21498,0 -0.38861,0.222367 0.16537,0.128289 0.32246,0.128289 0.0165,0.179604 -0.12402,0.248024 -0.12402,0.05986 -0.29766,0 -0.0744,-0.02565 -1.28157,-0.513154 -0.1819,-0.05129 -0.35554,-0.111182 -0.24804,-0.09407 -0.38034,-0.273686 0,0 -0.0992,-0.684206 -0.0827,-0.444737 -0.19844,-1.479601 0,-0.658552 0,-1.941442 -0.008,-0.855259 0.339,-0.855259 0.0579,0 0.12402,0.03421 0.0331,0.786842 0.27285,2.343413 0.0827,0.153947 0.23151,0.444737 0.28939,0.718418 0.93431,1.12039 0.33073,0.213813 1.12448,0.478946 0.16536,0.05129 0.76895,0.222368 0.41341,0.119734 1.12447,0.179605 0.20671,-0.333553 0.64493,-0.436183 0.57877,-0.128289 0.78548,-0.282236 0.14056,-0.09407 0.28939,-0.487499 0.12402,-0.325 0.23977,-0.658549 0.0744,-0.282235 0.23978,-0.898025 -0.0165,-0.102632 -0.0331,-0.307893 0.008,-0.487498 -0.22324,-1.077628 -0.24805,-0.641446 -0.61185,-0.889472 -0.0744,-0.171052 -0.26458,-0.419076 -0.47956,-0.333552 -1.39733,-0.880917 -0.19017,-0.179607 -0.58705,-0.470393 -1.29811,-0.649998 -2.28203,-1.650653 -0.38034,-0.39342 -0.7276,-1.120391 -0.008,-0.0855 -0.0579,-0.26513 -0.0496,-0.09407 -0.1571,-0.188159 -0.008,-0.01711 -0.0413,-0.0855 -0.008,-0.248023 -0.008,-0.496047 -0.0331,-0.325 -0.17363,-0.496052 0.008,-0.342105 0.0331,-1.034866 -0.0413,-0.04278 -0.10748,-0.128288 -0.0165,-0.07699 0,-0.29079 0.0496,-0.06843 0.12402,-0.179603 0,-0.0083 0.21497,-0.966445 0.12403,-0.590129 0.62012,-1.026312 0.0413,0.06843 0.14883,0.222367 0.0331,-0.222367 0.21497,-0.615786 0.77722,-0.898022 1.61231,-1.385523 0.25631,-0.0083 0.7028,-0.04278 0.47955,-0.04278 1.36425,-0.179604 0.0331,0.03421 0.11576,0.102635 0.47129,0.0855 1.38906,0.179604 0.66146,0.02565 0.80202,0 0.63665,-0.102635 0.55397,-0.102635 0.17363,0 0.27285,0.0855 0,0.0083 -0.22324,4.874983 -0.12402,0.07699 -0.42995,0.05132 -0.10748,-0.487502 -0.10748,-0.735524 0.008,-0.786839 -0.34727,-1.522365 -0.38034,-0.821048 -1.00872,-1.094733 -0.5209,-0.230919 -1.24851,-0.230919 -0.79375,0 -1.23196,0.248024 -0.0827,-0.0083 -0.22324,0.02565 -0.42995,0.265131 -0.77722,0.829604 -0.3638,0.590129 -0.37207,1.069075 -0.008,0.0855 0.0496,0.350656 0.0661,0.265129 0.0744,0.410526 0,0.889471 0.77721,1.719073 0.34726,0.367762 1.16582,0.949336 0.38034,0.171052 1.09967,0.564471 1.95957,1.223024 2.71198,2.463152 0.0662,0.188156 0.24805,0.632892 0.13229,0.316445 0.25631,1.043418 0.14883,0.855259 0.12403,1.58223 z"
           style="font-size:16.93333244px;fill:#ffcc00;stroke-width:0.26909479"
           id="path160" />
      </g>
      <g
         aria-label="the"
         style="font-style:normal;font-variant:normal;font-weight:normal;font-stretch:normal;font-size:5.64444447px;line-height:1.25;font-family:Ringbearer;-inkscape-font-specification:Ringbearer;letter-spacing:0px;word-spacing:0px;fill:#ffcc00;fill-opacity:1;stroke:none;stroke-width:0.26458332"
         id="text26">
        <path
           d="m 57.072998,35.732058 q -0.01344,0.08509 -0.03135,0.203777 v 0.51952 q -0.0112,0 -0.04031,0.0067 -0.02911,0.0067 -0.04031,0.0067 -0.0045,-0.01791 -0.03583,-0.266478 -0.01792,-0.143316 -0.132119,-0.219452 -0.04926,-0.03583 -0.232889,0.0045 -0.09181,0.009 -0.264239,0.04255 -0.06046,0.02015 -0.07614,0.07614 -0.03807,0.143316 -0.009,0.414272 0.03135,0.270957 -0.01568,0.745691 0,-0.0022 0.02911,0.309025 -0.009,0.107487 -0.0045,0.322461 0.02463,0.114205 0.07166,0.347094 0.02239,0.111965 0.150034,0.143316 0.103008,0.02463 0.206016,0.04703 0,0.03359 -0.0515,0.09853 h -1.26969 q -0.01791,0 -0.01791,-0.02687 0,-0.0067 0.0022,-0.03583 0.06942,-0.01568 0.203777,-0.06494 0.116445,-0.0627 0.172427,-0.150034 0.01568,-0.02463 0.03135,-0.201538 0.009,-0.309025 0.02239,-0.647161 v -0.806152 h 0.06046 q 0.0045,-0.0022 0.01568,-0.02015 -0.03135,-0.0739 -0.07614,-0.212735 -0.0045,-0.02687 -0.03583,-0.342614 h -0.414273 q -0.06494,0 -0.16123,0.07166 -0.09629,0.07166 -0.105248,0.116444 -0.04703,0.199299 -0.09181,0.275435 -0.02239,0.03807 -0.100769,0.03807 0,-0.009 -0.009,-0.05598 -0.0067,-0.04031 -0.0022,-0.05822 0.02687,-0.09181 0.0515,-0.284393 0.02911,-0.232889 0.04479,-0.313504 0,0 0.07166,-0.09405 -0.06718,-0.0067 0.409794,-0.0067 0.138837,0 0.420991,0.02463 0.284392,0.02463 0.273196,0.02463 h 0.369486 q -0.0022,0 0.134359,-0.02239 0.147795,-0.02239 0.284393,-0.02911 0.0515,-0.0067 0.103008,-0.01344 0.06718,-0.0067 0.08957,0.03359 z"
           style="font-style:normal;font-variant:normal;font-weight:normal;font-stretch:normal;font-size:4.58611107px;font-family:Ringbearer;-inkscape-font-specification:Ringbearer;fill:#ffcc00;stroke-width:0.26458332"
           id="path199" />
        <path
           d="m 60.196838,35.734297 q 0,0.02463 -0.02687,0.04479 -0.09405,0.02463 -0.161231,0.06718 -0.03807,0.02463 -0.09181,0.103008 -0.0515,0.07838 -0.0515,0.118683 0,0.201539 0.0045,0.158992 -0.01791,0.05374 -0.04031,0.156751 0,0.02687 0.02911,0.23065 0.009,0.06942 0.009,0.181384 0,0.132119 -0.01568,0.322461 -0.01344,0.188102 -0.01344,0.174666 v 0.331418 q 0,0.506085 0.118683,0.700905 0.02239,0.03807 0.09853,0.07838 0.07614,0.04031 0.12988,0.04479 -0.01344,0.02239 -0.04926,0.06718 h -1.045758 q 0,-0.01344 -0.0067,-0.04031 -0.0067,-0.02911 -0.0067,-0.04031 0.04926,-0.02239 0.141076,-0.06718 0.06942,-0.03359 0.12988,-0.206017 0.0515,-0.150034 0.0515,-0.235128 v -0.326939 q 0,-0.03359 -0.01568,-0.183624 -0.0112,-0.114205 0,-0.183623 0.009,-0.0515 -0.03807,-0.174667 -0.109726,0.08062 -0.331418,0.120923 -0.116444,0.02239 -0.201538,0.009 -0.116444,-0.02015 -0.123162,-0.02015 h -0.564307 q -0.0515,0.02911 -0.132119,0.107487 -0.03359,0.05374 -0.02239,0.152273 0.01791,0.03807 0.04031,0.109726 -0.0067,-0.03135 -0.01568,0.123162 -0.0022,0.0112 0.01568,0.351572 0.01792,0.367247 0.253042,0.412034 0.009,0.0022 0.09629,0.03583 -0.07614,0.08285 -0.172427,0.08285 -0.02687,0 -0.06494,-0.0067 -0.04479,-0.0067 -0.05598,-0.0067 l -0.882289,-0.01344 q 0.0022,-0.04031 0.103008,-0.08062 0.118684,-0.04927 0.181385,-0.145555 0.04703,-0.0739 0.0627,-0.277675 0.01792,-0.212734 0.0045,-0.362768 -0.009,-0.01792 -0.02687,-0.04927 -0.0022,-0.172427 0.02015,-0.512803 0.0022,-0.0112 0.02463,-0.07166 0.02015,-0.0515 0.01792,-0.08509 -0.02463,-0.03807 -0.0627,-0.13212 0.0067,0.02687 0.01567,-0.147794 0.0022,-0.03583 -0.009,-0.105248 -0.009,-0.06942 -0.009,-0.07838 v -0.360529 q 0,-0.07166 -0.100769,-0.172427 -0.100769,-0.100769 -0.199299,-0.13212 0.0022,-0.0045 0.04927,-0.07614 0.08061,-0.0022 0.250803,-0.01568 0.16123,-0.01344 0.167948,-0.01344 h 0.42547 q 0.02911,0 0.06046,-0.0067 0.03135,-0.0067 0.04255,-0.0067 0.04479,0 0.156752,0.08733 -0.07838,0.03807 -0.156752,0.07838 -0.09629,0.0515 -0.141077,0.114205 -0.07166,0.09853 -0.07166,0.369486 v 0.479213 q 0,0.01344 0.0067,0.02911 0.0067,0.01568 0.0067,0.02463 0.105248,0.04702 0.179145,0.04702 h 0.889007 q 0.04703,0.0067 0.138837,0.02911 0.0022,0 0.06046,0.02687 0.04479,0.02015 0.06942,0.02015 0.01568,0 0.02687,-0.0045 0.07166,-0.08509 0.07166,-0.206017 0,-0.06046 -0.02463,-0.174666 -0.02463,-0.114205 -0.02239,-0.158991 0,-0.03583 -0.01344,-0.141077 -0.01568,-0.123162 -0.01792,-0.174666 -0.0112,-0.217213 -0.331418,-0.387401 0.04255,-0.04479 0.06494,-0.04479 h 0.333658 q -0.02911,0 0.185863,-0.0045 0.188102,-0.0067 0.288871,-0.0022 0.100769,0.01567 0.29335,0.04479 z"
           style="font-style:normal;font-variant:normal;font-weight:normal;font-stretch:normal;font-size:4.58611107px;font-family:Ringbearer;-inkscape-font-specification:Ringbearer;fill:#ffcc00;stroke-width:0.26458332"
           id="path201" />
        <path
           d="m 62.617534,37.787746 q -0.0067,0.116444 -0.02911,0.329179 -0.02687,0.05822 -0.06718,0.16347 -0.009,0.04479 -0.03359,0.125401 -0.009,0.02463 -0.05822,0.08285 -0.05822,0.07166 -0.09405,0.07166 h -0.571025 q -0.01568,0 -0.201538,-0.0067 -0.185863,-0.0067 -0.201538,-0.0067 h -0.344854 q -0.01344,0 -0.138837,-0.01344 -0.123162,-0.0112 -0.138838,-0.0112 h -0.338136 l -0.02911,-0.03135 q 0.02463,-0.03135 0.19482,-0.134359 0.116445,-0.0739 0.116445,-0.179145 V 37.46979 q 0,-0.172427 0.05374,-0.463538 -0.02911,-0.08957 -0.0112,-0.223931 -0.04031,-0.03359 -0.04031,-0.09405 0,-0.0045 0.04479,-0.183624 0.0022,-0.01568 -0.02239,-0.0627 -0.03135,-0.05598 -0.03359,-0.05822 -0.01568,-0.04702 -0.01344,-0.147794 0,-0.138837 0,-0.152273 -0.0067,-0.07614 -0.03135,-0.123163 -0.03359,-0.06494 -0.109726,-0.103008 -0.06718,-0.02911 -0.134359,-0.06046 0.03135,-0.0739 0.06718,-0.07838 0.06942,0.009 0.199299,0.0045 0.143316,-0.03359 0.138838,-0.03359 h 0.396358 q 0.009,0 0.134359,0.01567 0.12764,0.01568 0.19258,0.01791 0.02687,0 0.447863,-0.02911 0.09629,-0.0067 0.503845,0.01344 0.03583,0.02463 0.03583,0.06046 0,0.02015 -0.01567,0.05822 -0.01344,0.03807 -0.01344,0.05598 -0.0022,0.0739 -0.04703,0.48817 -0.0067,0.01344 -0.06494,0.04255 -0.01344,-0.02239 -0.08285,-0.239607 -0.04479,-0.141077 -0.165709,-0.154512 -0.04926,-0.0112 -0.100769,-0.02239 -0.06942,-0.01568 -0.107487,-0.0045 -0.09853,0.02911 -0.427709,0.0067 -0.181384,-0.01344 -0.273196,0.0067 -0.02687,0.0067 -0.03583,0.0515 0.08062,0.261999 0.0067,0.463537 0.0045,-0.01343 0.0045,0.111966 0,0.03135 -0.0112,0.12988 -0.0112,0.08062 -0.0045,0.12988 0.0022,0.02239 0.04255,0.05822 h 0.844221 q 0.04031,-0.01344 0.07838,-0.02687 0.0627,-0.02239 0.08733,-0.06942 0.02239,-0.05822 0.08286,-0.16123 0.07166,0 0.09181,0.04926 -0.009,0.127641 -0.01791,0.32694 -0.0022,0.132119 -0.03135,0.387401 -0.009,0.03807 -0.08957,0.02463 -0.02911,-0.05374 -0.103008,-0.141076 -0.136598,-0.103009 -0.248564,-0.103009 H 61.58969 q -0.02911,0 -0.114205,-0.0112 -0.08509,-0.0112 -0.127641,-0.0112 -0.118683,0 -0.150034,0.06942 -0.03583,0.07838 -0.03583,0.120923 0,0.04031 0.01568,0.152273 0.01567,0.111966 0.01343,0.172427 -0.0022,0.03135 -0.02239,0.118684 -0.01791,0.08509 -0.01791,0.134358 0,0.03807 0.009,0.06942 0.01568,0.05374 0.120923,0.12988 0.107487,0.07614 0.183624,0.08733 0.0112,0.0045 0.02239,0.009 0.02239,0.0067 0.04031,0.0067 h 0.371726 q 0.125402,0 0.210495,-0.04031 0.118684,-0.05374 0.23065,-0.179145 0.123162,-0.138838 0.132119,-0.264239 0.05822,-0.03807 0.145555,-0.01344 z"
           style="font-style:normal;font-variant:normal;font-weight:normal;font-stretch:normal;font-size:4.58611107px;font-family:Ringbearer;-inkscape-font-specification:Ringbearer;fill:#ffcc00;stroke-width:0.26458332"
           id="path203" />
      </g>
      <text
         xml:space="preserve"
         style="font-style:normal;font-weight:normal;font-size:10.58333302px;line-height:1.25;font-family:sans-serif;letter-spacing:0px;word-spacing:0px;fill:#000000;fill-opacity:1;stroke:none;stroke-width:0.26458332"
         x="89.693748"
         y="38.237499"
         id="text30"><tspan
           x="89.693748"
           y="47.601269"
           style="font-style:normal;font-variant:normal;font-weight:normal;font-stretch:normal;font-size:4.23333311px;line-height:0;font-family:Ringbearer;-inkscape-font-specification:Ringbearer;stroke-width:0.26458332"
           id="tspan32" /></text>
      <flowRoot
         xml:space="preserve"
         id="flowRoot34"
         style="font-style:normal;font-weight:normal;font-size:40px;line-height:1.25;font-family:sans-serif;letter-spacing:0px;word-spacing:0px;fill:#000000;fill-opacity:1;stroke:none"><flowRegion
           id="flowRegion36"><rect
             id="rect38"
             width="57"
             height="47"
             x="344"
             y="54.519684" /></flowRegion><flowPara
           id="flowPara40" /></flowRoot>      <text
         xml:space="preserve"
         style="font-style:normal;font-variant:normal;font-weight:normal;font-stretch:normal;font-size:10.58333302px;line-height:0;font-family:Ringbearer;-inkscape-font-specification:Ringbearer;letter-spacing:0px;word-spacing:0px;fill:#000000;fill-opacity:1;stroke:none;stroke-width:0.26458332"
         x="92.074997"
         y="13.366666"
         id="text46"><tspan
           id="tspan44"
           x="92.074997"
           y="16.115852"
           style="font-style:normal;font-variant:normal;font-weight:normal;font-stretch:normal;font-family:Ringbearer;-inkscape-font-specification:Ringbearer;stroke-width:0.26458332" /><tspan
           x="92.074997"
           y="16.115852"
           style="font-style:normal;font-variant:normal;font-weight:normal;font-stretch:normal;font-family:Ringbearer;-inkscape-font-specification:Ringbearer;stroke-width:0.26458332"
           id="tspan48"> </tspan></text>
      <g
         aria-label="of  the"
         style="font-style:normal;font-weight:normal;font-size:10.58333302px;line-height:0.5;font-family:sans-serif;letter-spacing:0px;word-spacing:0px;fill:#ffcc00;fill-opacity:1;stroke:none;stroke-width:0.26458332"
         id="text60">
        <path
           d="m 94.668496,42.076715 q 0,0.157097 -0.0083,0.239779 -0.02756,0.06339 -0.05788,0.195681 -0.0055,0.132292 -0.05788,0.28112 -0.0441,0.05512 -0.129536,0.179145 -0.02205,0.08268 -0.121267,0.237023 -0.07993,0.07993 -0.242535,0.248046 -0.02481,0.0083 -0.06339,0.02756 -0.03583,0.03307 -0.126779,0.09646 -0.451997,0.239779 -0.859896,0.272851 h -0.363802 q 0.0055,0 -0.02205,-0.01654 -0.297656,-0.0083 -0.446484,-0.08268 -0.03858,-0.0083 -0.104731,-0.02756 -0.110243,-0.0441 -0.330729,-0.157096 -0.264584,-0.168121 -0.496094,-0.474046 -0.129536,-0.170876 -0.228754,-0.440972 -0.09371,-0.250803 -0.104731,-0.421679 -0.01929,-0.292145 0.02205,-0.573264 0.01654,-0.03583 0.0441,-0.101975 0.01654,-0.08268 0.05788,-0.239779 0.06063,-0.09646 0.159853,-0.28112 0.01378,-0.03032 0.01378,-0.07166 0.01378,-0.01378 0.05512,0.0083 0.01378,-0.03859 0,-0.110243 0.03583,-0.01102 0.101974,-0.04685 0.02205,-0.05788 0.104731,-0.14056 0.165365,-0.08819 0.49885,-0.259071 0.08544,-0.04134 0.21773,-0.07166 0.336242,-0.07717 0.457509,-0.07717 h 0.214974 q 0.250803,0 0.429948,0.04685 0.09646,0.02756 0.424436,0.154341 0.0689,0.0441 0.21773,0.137803 0.214974,0.137804 0.391362,0.377583 0.157097,0.214974 0.20395,0.396875 0.02205,0.03032 0.05512,0.09095 0.06063,0.165365 0.0689,0.490582 0,0.01102 0.01102,0.05237 0.01378,0.03859 0.01378,0.06063 z m -0.611849,0.07166 q -0.0248,-0.347265 -0.135048,-0.633897 -0.140559,-0.369315 -0.330729,-0.581533 -0.270095,-0.297656 -0.5898,-0.350021 -0.303168,-0.04961 -0.416168,-0.03307 -0.220486,0.02756 -0.374826,0.09646 -0.01929,0.0083 -0.250803,0.146072 -0.01378,0.02756 -0.04961,0.06614 -0.02205,0.0055 -0.04961,0.01654 -0.05512,0.07166 -0.137803,0.192925 -0.01103,0.03307 -0.03583,0.09371 -0.04134,0.06615 -0.08819,0.157096 -0.02481,0.101975 -0.07717,0.305925 0.0028,0.07717 -0.0028,0.234266 0,0.0083 -0.01102,0.03583 -0.01103,0.02756 -0.0083,0.03859 0.03858,0.179145 0.110243,0.496094 -0.0083,0.02205 -0.01102,0.05237 0.01929,0.03858 0.05512,0.104731 0.0028,0.03583 0.01654,0.09371 0.115755,0.23151 0.121267,0.237022 0.08268,0.143316 0.225999,0.272852 0.0028,0.0028 0.03583,0.112999 0.01102,0.0028 0.09371,0.01654 0.135048,0.124023 0.206706,0.16812 0.20395,0.121268 0.738628,0.07441 0.0441,-0.01378 0.115756,-0.03583 0.09095,-0.01929 0.261827,-0.09095 0.03858,-0.03583 0.101975,-0.08544 0.275607,-0.170876 0.327973,-0.421679 0.02756,-0.03307 0.06615,-0.09371 0.0055,-0.05237 0.01654,-0.124023 0.01654,-0.01654 0.03307,-0.05237 0.0055,-0.06339 0.02756,-0.275607 0.01929,-0.170877 0.01378,-0.234267 z"
           style="text-align:center;text-anchor:middle;fill:#ffcc00"
           id="path163" />
        <path
           d="m 97.176526,40.370704 q 0.0248,0.129535 -0.01654,0.73036 -0.0028,0.04685 -0.07166,0.110243 -0.01102,0.0028 -0.09095,0.0028 -0.01654,-0.195681 -0.04134,-0.275607 -0.05237,-0.162609 -0.181901,-0.198438 -0.12678,-0.03858 -0.556728,-0.03858 H 95.73785 q -0.135048,0 -0.135048,0.261827 0,-0.03307 0.02756,0.289388 0.0055,0.0689 -0.01929,0.225999 -0.02756,0.173632 -0.02756,0.253559 0,0.124023 0.0441,0.206705 h 0.363802 q 0.01102,0 0.08819,0.01654 0.07993,0.01378 0.09922,0.01378 h 0.352778 q 0.198437,0 0.344509,-0.206706 0.01102,-0.04134 0.03858,-0.115755 0.03032,-0.0248 0.121268,-0.02205 0.01378,0.08544 0.0248,0.248047 -0.0083,0.198437 -0.06615,0.785481 -0.0083,0.07717 -0.14056,0.06615 -0.02481,-0.112999 -0.04961,-0.225998 -0.0441,-0.14056 -0.159852,-0.176389 -0.0689,-0.01929 -0.341754,-0.01929 H 95.89495 q -0.02756,0.01654 -0.132291,0.01103 -0.09371,-0.0055 -0.129536,0.0441 0.0028,0.06615 -0.0083,0.195681 -0.0028,0.02481 -0.04134,0.165365 -0.03032,0.101975 -0.02481,0.165365 0.01929,0.03583 0.03859,0.10473 0,0.04961 -0.01102,0.151585 -0.0083,0.101974 -0.0083,0.151584 0,0.214974 0.148829,0.336241 0.0028,0.0028 0.407899,0.159853 -0.05237,0.06339 -0.137804,0.06615 0.165365,-0.0028 -0.159852,-0.01102 -0.253559,-0.0055 -0.631142,-0.02756 -0.201193,-0.0083 -0.261827,0.0028 -0.03583,0.02205 -0.09922,0.04961 0.0028,0 -0.206706,-0.0441 0.01654,-0.04961 0.129536,-0.129536 0.112999,-0.07993 0.135048,-0.118511 0.101975,-0.192926 0.101975,-0.361046 v -0.661459 q 0,0.0028 -0.0083,-0.190169 -0.0055,-0.195681 -0.0055,-0.2949 0,0.01378 0.0055,-0.09646 0.0055,-0.07717 -0.0028,-0.132291 -0.0083,-0.07993 -0.04134,-0.135048 0.09646,-0.137804 0.09646,-0.325217 0,-0.187413 -0.09646,-0.427192 0,-0.04961 -0.0055,-0.132292 -0.0028,-0.04685 -0.01654,-0.07717 -0.05512,-0.115755 -0.162608,-0.21773 -0.03032,-0.03032 -0.14056,-0.04134 -0.02205,-0.03032 -0.01654,-0.112999 -0.01378,0 0.377582,-0.0083 0.609093,-0.0083 1.857596,-0.01929 0.124023,0 0.330729,0.02756 z"
           style="text-align:center;text-anchor:middle;fill:#ffcc00"
           id="path165" />
        <path
           d="m 92.025419,45.724382 q -0.01654,0.104731 -0.03858,0.250803 v 0.63941 q -0.01378,0 -0.04961,0.0083 -0.03583,0.0083 -0.04961,0.0083 -0.0055,-0.02205 -0.0441,-0.327973 -0.02205,-0.176389 -0.162609,-0.270095 -0.06063,-0.0441 -0.286632,0.0055 -0.112999,0.01102 -0.325217,0.05237 -0.07441,0.0248 -0.09371,0.09371 -0.04685,0.176389 -0.01102,0.509874 0.03858,0.333485 -0.01929,0.917773 0,-0.0028 0.03583,0.380339 -0.01102,0.132292 -0.0055,0.396875 0.03032,0.14056 0.08819,0.427192 0.02756,0.137804 0.184657,0.176389 0.12678,0.03032 0.253559,0.05788 0,0.04134 -0.06339,0.121268 h -1.562696 q -0.02205,0 -0.02205,-0.03307 0,-0.0083 0.0028,-0.0441 0.08544,-0.01929 0.250803,-0.07993 0.143316,-0.07717 0.212218,-0.184657 0.01929,-0.03032 0.03858,-0.248047 0.01102,-0.380338 0.02756,-0.796506 V 46.79374 h 0.07442 q 0.0055,-0.0028 0.01929,-0.02481 -0.03858,-0.09095 -0.09371,-0.261827 -0.0055,-0.03307 -0.0441,-0.42168 h -0.509874 q -0.07993,0 -0.198437,0.08819 -0.118512,0.08819 -0.129536,0.143316 -0.05788,0.24529 -0.112999,0.338997 -0.02756,0.04685 -0.124024,0.04685 0,-0.01102 -0.01102,-0.0689 -0.0083,-0.04961 -0.0028,-0.07166 0.03307,-0.112999 0.06339,-0.350021 0.03583,-0.286632 0.05512,-0.385851 0,0 0.08819,-0.115755 -0.08268,-0.0083 0.504362,-0.0083 0.170877,0 0.518142,0.03032 0.350022,0.03032 0.336241,0.03032 h 0.454753 q -0.0028,0 0.165365,-0.02756 0.181901,-0.02756 0.350021,-0.03583 0.06339,-0.0083 0.12678,-0.01654 0.08268,-0.0083 0.110243,0.04134 z"
           style="font-style:normal;font-variant:normal;font-weight:normal;font-stretch:normal;font-size:5.64444447px;line-height:0.5;font-family:Ringbearer;-inkscape-font-specification:Ringbearer;text-align:center;text-anchor:middle;fill:#ffcc00;stroke-width:0.26458332"
           id="path167" />
        <path
           d="m 95.870145,45.727138 q 0,0.03032 -0.03307,0.05512 -0.115756,0.03032 -0.198438,0.08268 -0.04685,0.03032 -0.112999,0.12678 -0.06339,0.09646 -0.06339,0.146072 0,0.248046 0.0055,0.195681 -0.02205,0.06615 -0.04961,0.192925 0,0.03307 0.03583,0.283876 0.01102,0.08544 0.01102,0.223242 0,0.162609 -0.01929,0.396875 -0.01654,0.231511 -0.01654,0.214974 v 0.4079 q 0,0.622873 0.146072,0.862652 0.02756,0.04685 0.121268,0.09646 0.09371,0.04961 0.159852,0.05512 -0.01654,0.02756 -0.06063,0.08268 h -1.287087 q 0,-0.01654 -0.0083,-0.04961 -0.0083,-0.03583 -0.0083,-0.04961 0.06063,-0.02756 0.173633,-0.08268 0.08544,-0.04134 0.159852,-0.253559 0.06339,-0.184657 0.06339,-0.289388 V 48.02295 q 0,-0.04134 -0.01929,-0.225998 -0.01378,-0.14056 0,-0.225999 0.01102,-0.06339 -0.04685,-0.214974 -0.135047,0.09922 -0.407899,0.148828 -0.143316,0.02756 -0.248047,0.01103 -0.143316,-0.02481 -0.151584,-0.02481 h -0.694531 q -0.06339,0.03583 -0.162609,0.132292 -0.04134,0.06615 -0.02756,0.187413 0.02205,0.04685 0.04961,0.135048 -0.0083,-0.03858 -0.01929,0.151584 -0.0028,0.01378 0.01929,0.432704 0.02205,0.451996 0.311437,0.507118 0.01102,0.0028 0.118511,0.0441 -0.09371,0.101975 -0.212218,0.101975 -0.03307,0 -0.07993,-0.0083 -0.05512,-0.0083 -0.0689,-0.0083 l -1.085894,-0.01654 q 0.0028,-0.04961 0.126779,-0.09922 0.146072,-0.06063 0.223242,-0.179145 0.05788,-0.09095 0.07717,-0.341753 0.02205,-0.261827 0.0055,-0.446485 -0.01103,-0.02205 -0.03307,-0.06063 -0.0028,-0.212218 0.0248,-0.631142 0.0028,-0.01378 0.03032,-0.08819 0.02481,-0.06339 0.02205,-0.104731 -0.03032,-0.04685 -0.07717,-0.162609 0.0083,0.03307 0.01929,-0.181901 0.0028,-0.0441 -0.01102,-0.129535 -0.01102,-0.08544 -0.01102,-0.09646 v -0.443728 q 0,-0.08819 -0.124024,-0.212218 -0.124023,-0.124023 -0.245291,-0.162609 0.0028,-0.0055 0.06063,-0.09371 0.09922,-0.0028 0.308681,-0.01929 0.198437,-0.01654 0.206705,-0.01654 h 0.523655 q 0.03583,0 0.07441,-0.0083 0.03858,-0.0083 0.05236,-0.0083 0.05512,0 0.192926,0.107487 -0.09646,0.04685 -0.192926,0.09646 -0.118511,0.06339 -0.173632,0.14056 -0.08819,0.121267 -0.08819,0.454753 v 0.5898 q 0,0.01654 0.0083,0.03583 0.0083,0.01929 0.0083,0.03032 0.129535,0.05788 0.220486,0.05788 h 1.094162 q 0.05788,0.0083 0.170877,0.03583 0.0028,0 0.07441,0.03307 0.05512,0.02481 0.08544,0.02481 0.01929,0 0.03307,-0.0055 0.08819,-0.104731 0.08819,-0.253559 0,-0.07441 -0.03032,-0.214974 -0.03032,-0.14056 -0.02756,-0.195682 0,-0.0441 -0.01654,-0.173632 -0.01929,-0.151585 -0.02205,-0.214974 -0.01378,-0.26734 -0.407899,-0.476802 0.05236,-0.05512 0.07993,-0.05512 h 0.410655 q -0.03583,0 0.228755,-0.0055 0.23151,-0.0083 0.355533,-0.0028 0.124024,0.01929 0.361046,0.05512 z"
           style="font-style:normal;font-variant:normal;font-weight:normal;font-stretch:normal;font-size:5.64444447px;line-height:0.5;font-family:Ringbearer;-inkscape-font-specification:Ringbearer;text-align:center;text-anchor:middle;fill:#ffcc00;stroke-width:0.26458332"
           id="path169" />
        <path
           d="m 98.849464,48.25446 q -0.0083,0.143316 -0.03583,0.405143 -0.03307,0.07166 -0.08268,0.201194 -0.01103,0.05512 -0.04134,0.15434 -0.01102,0.03032 -0.07166,0.101975 -0.07166,0.08819 -0.115755,0.08819 H 97.7994 q -0.01929,0 -0.248047,-0.0083 -0.228755,-0.0083 -0.248047,-0.0083 H 96.87887 q -0.01654,0 -0.170877,-0.01654 -0.151584,-0.01378 -0.170876,-0.01378 h -0.416168 l -0.03583,-0.03859 q 0.03032,-0.03858 0.239779,-0.165364 0.143316,-0.09095 0.143316,-0.220486 v -0.870921 q 0,-0.212217 0.06615,-0.570507 -0.03583,-0.110243 -0.01378,-0.275608 -0.04961,-0.04134 -0.04961,-0.115755 0,-0.0055 0.05512,-0.225999 0.0028,-0.01929 -0.02756,-0.07717 -0.03858,-0.0689 -0.04134,-0.07166 -0.01929,-0.05788 -0.01654,-0.181901 0,-0.170876 0,-0.187413 -0.0083,-0.09371 -0.03858,-0.151584 -0.04134,-0.07993 -0.135048,-0.12678 -0.08268,-0.03583 -0.165364,-0.07441 0.03858,-0.09095 0.08268,-0.09646 0.08544,0.01102 0.245291,0.0055 0.176389,-0.04134 0.170876,-0.04134 h 0.487826 q 0.01102,0 0.165365,0.01929 0.157096,0.01929 0.237022,0.02205 0.03307,0 0.551215,-0.03583 0.118512,-0.0083 0.620118,0.01654 0.0441,0.03032 0.0441,0.07441 0,0.02481 -0.01929,0.07166 -0.01654,0.04685 -0.01654,0.0689 -0.0028,0.09095 -0.05788,0.600825 -0.0083,0.01654 -0.07993,0.05237 -0.01654,-0.02756 -0.101975,-0.2949 -0.05512,-0.173633 -0.203949,-0.190169 -0.06063,-0.01378 -0.124024,-0.02756 -0.08544,-0.01929 -0.132292,-0.0055 -0.121267,0.03583 -0.52641,0.0083 -0.223242,-0.01654 -0.336241,0.0083 -0.03307,0.0083 -0.0441,0.06339 0.09922,0.322461 0.0083,0.570508 0.0055,-0.01654 0.0055,0.137804 0,0.03859 -0.01378,0.159852 -0.01378,0.09922 -0.0055,0.159853 0.0028,0.02756 0.05237,0.07166 h 1.03904 q 0.04961,-0.01654 0.09646,-0.03307 0.07717,-0.02756 0.107487,-0.08544 0.02756,-0.07166 0.101975,-0.198437 0.08819,0 0.112999,0.06063 -0.01102,0.157096 -0.02205,0.402387 -0.0028,0.162608 -0.03858,0.476801 -0.01102,0.04685 -0.110243,0.03032 -0.03583,-0.06615 -0.126779,-0.173633 -0.168121,-0.12678 -0.305925,-0.12678 H 97.58446 q -0.03583,0 -0.14056,-0.01378 -0.104731,-0.01378 -0.157097,-0.01378 -0.146072,0 -0.184657,0.08544 -0.0441,0.09646 -0.0441,0.148828 0,0.04961 0.01929,0.187413 0.01929,0.137804 0.01654,0.212218 -0.0028,0.03858 -0.02756,0.146072 -0.02205,0.104731 -0.02205,0.165365 0,0.04685 0.01102,0.08544 0.01929,0.06615 0.148828,0.159853 0.132292,0.09371 0.225998,0.107487 0.01378,0.0055 0.02756,0.01102 0.02756,0.0083 0.04961,0.0083 h 0.457508 q 0.154341,0 0.259071,-0.04961 0.146073,-0.06615 0.283876,-0.220486 0.151585,-0.170877 0.162609,-0.325217 0.07166,-0.04685 0.179145,-0.01654 z"
           style="font-style:normal;font-variant:normal;font-weight:normal;font-stretch:normal;font-size:5.64444447px;line-height:0.5;font-family:Ringbearer;-inkscape-font-specification:Ringbearer;text-align:center;text-anchor:middle;fill:#ffcc00;stroke-width:0.26458332"
           id="path171" />
      </g>
      <g
         aria-label="a tribute page"
         style="font-style:normal;font-variant:normal;font-weight:normal;font-stretch:normal;font-size:4.93888903px;line-height:0;font-family:Ringbearer;-inkscape-font-specification:Ringbearer;letter-spacing:0px;word-spacing:0px;fill:#ffcc00;fill-opacity:1;stroke:none;stroke-width:0.26458332"
         id="text142">
        <path
           d="m 82.100243,58.096924 q -0.04031,0.01792 -0.118684,0.0112 -0.12988,-0.0112 -0.120923,-0.0112 h -0.179145 q -0.3247,0 -0.506084,0.03359 -0.100769,0.01792 -0.134359,-0.02015 -0.0045,-0.06718 0.0067,-0.114205 0.04479,-0.0045 0.125402,-0.03135 0.03359,-0.02015 0.0515,-0.06718 0.01791,-0.04703 0.0067,-0.0739 -0.02911,-0.12988 -0.08957,-0.38964 -0.0045,-0.01568 -0.04927,-0.127641 -0.03583,-0.08957 -0.03583,-0.136598 -0.0022,-0.01344 -0.02911,-0.01344 -0.03807,0 -0.367247,0.01792 l -0.472495,0.0067 q -0.0515,-0.0022 -0.09629,0.09405 -0.02239,0.04926 -0.0627,0.145555 -0.0515,0.156752 -0.04927,0.185863 0,-0.01568 -0.02239,0.134359 -0.01568,0.105247 0,0.143316 0.009,0.02239 0.06718,0.07166 0.06046,0.04926 0.103009,0.06494 0.0112,0.0045 0.03583,0.0112 0.01791,0.03135 0.02911,0.04926 -0.04703,0.01344 -0.12988,0.02911 -0.12988,-0.0112 -0.373965,-0.01791 -0.0515,0.01567 -0.158991,0.03135 -0.0045,0 -0.16347,-0.02015 -0.0045,-0.0112 -0.0045,-0.02015 0,-0.02687 0.06718,-0.07614 0.02463,-0.03359 0.08286,-0.08733 0.0515,-0.03359 0.08957,-0.114205 0.03807,-0.08285 0.116444,-0.255282 0.03359,-0.107487 0.100769,-0.3247 0.04479,-0.103008 0.114205,-0.313504 0.0515,-0.154512 0.150034,-0.459059 0.009,-0.009 0.02239,-0.02687 0.0067,0.03583 0.01791,0.03583 0.01568,0 0.04031,-0.09629 0.02239,-0.08733 0.02239,-0.125401 0,-0.0067 -0.0022,-0.0067 -0.0045,0.0067 -0.01568,0.04031 0,-0.02239 0.0045,-0.0627 0.03583,-0.09405 0.100769,-0.277675 0.01568,-0.08733 0.09629,-0.25976 0.0112,-0.03807 0.03359,-0.116444 0.02015,-0.06718 0.07838,-0.201539 0.0067,-0.02911 0.03359,-0.08285 0.01344,-0.01568 0.105247,-0.009 0.08733,0.0022 0.264239,0.01568 0.05822,0.167948 0.208256,0.535195 0.0045,0.04255 0.02463,0.125402 0.03583,0.105248 0.09405,0.19482 -0.0112,0.01568 0.01791,0.116444 0.03583,0.08062 0.105248,0.237367 0.04703,0.154513 0.145555,0.429948 0.0067,0.0627 0.04255,0.179145 0,0.01792 0.0112,0.05598 0.02687,0.05822 0.09629,0.223931 0.02463,0.03583 0.06718,0.109727 -0.0022,0.01791 0.0045,0.04926 0.03135,0.09181 0.09629,0.257521 0.02239,0.03807 0.07614,0.138838 0.01344,0.02687 0.127641,0.06942 0.03359,0.0112 0.09853,0.03359 z m -1.151007,-1.173399 q -0.0022,-0.0022 -0.163469,-0.445623 -0.02687,-0.08957 -0.08286,-0.266478 -0.02687,-0.05374 -0.07166,-0.154513 -0.01344,-0.04702 -0.04703,-0.134359 -0.08062,0.183624 -0.179145,0.371726 -0.01344,0.01344 -0.03135,0.04255 -0.0067,0.03359 -0.02463,0.103009 -0.01568,0.03135 -0.03807,0.08957 -0.0022,0.03807 -0.0112,0.09853 -0.01568,0.02239 -0.03583,0.0627 -0.0112,0.0515 -0.03359,0.145556 -0.0112,0.01791 -0.02911,0.04927 0.0045,-0.02463 0.0045,0.03807 z"
           style="font-style:normal;font-variant:normal;font-weight:normal;font-stretch:normal;font-size:4.58611107px;font-family:Ringbearer;-inkscape-font-specification:Ringbearer;fill:#ffcc00;stroke-width:0.26458332"
           id="path174" />
        <path
           d="m 85.378596,55.31122 q -0.01344,0.08509 -0.03135,0.203778 v 0.51952 q -0.0112,0 -0.04031,0.0067 -0.02911,0.0067 -0.04031,0.0067 -0.0045,-0.01791 -0.03583,-0.266478 -0.01792,-0.143316 -0.132119,-0.219453 -0.04926,-0.03583 -0.232889,0.0045 -0.09181,0.009 -0.264239,0.04255 -0.06046,0.02015 -0.07614,0.07614 -0.03807,0.143316 -0.009,0.414273 0.03135,0.270957 -0.01568,0.745691 0,-0.0022 0.02911,0.309025 -0.009,0.107487 -0.0045,0.322461 0.02463,0.114205 0.07166,0.347093 0.02239,0.111966 0.150034,0.143316 0.103008,0.02463 0.206016,0.04703 0,0.03359 -0.0515,0.09853 h -1.26969 q -0.01791,0 -0.01791,-0.02687 0,-0.0067 0.0022,-0.03583 0.06942,-0.01568 0.203777,-0.06494 0.116445,-0.0627 0.172427,-0.150034 0.01568,-0.02463 0.03135,-0.201538 0.009,-0.309025 0.02239,-0.647161 V 56.18007 h 0.06046 q 0.0045,-0.0022 0.01568,-0.02015 -0.03135,-0.0739 -0.07614,-0.212735 -0.0045,-0.02687 -0.03583,-0.342615 H 83.59599 q -0.06494,0 -0.16123,0.07166 -0.09629,0.07166 -0.105248,0.116444 -0.04703,0.199299 -0.09181,0.275436 -0.02239,0.03807 -0.100769,0.03807 0,-0.009 -0.009,-0.05598 -0.0067,-0.04031 -0.0022,-0.05822 0.02687,-0.09181 0.0515,-0.284393 0.02911,-0.232888 0.04479,-0.313503 0,0 0.07166,-0.09405 -0.06718,-0.0067 0.409794,-0.0067 0.138837,0 0.420991,0.02463 0.284392,0.02463 0.273196,0.02463 h 0.369486 q -0.0022,0 0.134359,-0.02239 0.147795,-0.02239 0.284393,-0.02911 0.0515,-0.0067 0.103008,-0.01344 0.06718,-0.0067 0.08957,0.03359 z"
           style="font-style:normal;font-variant:normal;font-weight:normal;font-stretch:normal;font-size:4.58611107px;font-family:Ringbearer;-inkscape-font-specification:Ringbearer;fill:#ffcc00;stroke-width:0.26458332"
           id="path176" />
        <path
           d="m 88.305376,58.034224 q -0.01791,0.02463 -0.05822,0.06046 -0.100769,0.05598 -0.145555,0.05598 h -0.268718 q -0.136598,0 -0.203777,-0.0112 -0.04926,-0.01791 -0.150034,-0.0515 -0.08509,-0.02687 -0.297828,-0.268717 -0.01792,-0.02015 -0.174667,-0.288872 -0.141076,-0.244085 -0.221692,-0.409794 -0.02015,-0.0627 -0.07166,-0.16123 -0.02239,-0.02463 -0.111965,-0.01791 -0.05598,0.0067 -0.114205,0.01344 -0.0739,-0.0045 -0.219453,-0.0022 -0.01568,0 -0.03807,0.02687 0.009,0.08733 0.02239,0.548631 0.0022,0.08957 0.03583,0.235128 0,0.04031 0.02239,0.118683 0.04703,0.08062 0.152273,0.116445 0.08509,0.02463 0.170188,0.04926 0.0022,0.02463 -0.0045,0.05822 -0.06494,0.02687 -0.13212,0.02687 h -0.235128 q -0.0045,0 -0.06046,-0.0112 -0.05598,-0.0112 -0.08061,-0.0112 -0.06942,0 -0.217214,0.0112 -0.145555,0.0112 -0.145555,0.0112 h -0.22617 q -0.03359,0 -0.08062,-0.02015 0,-0.0067 -0.0067,-0.02687 -0.0045,-0.02015 -0.0045,-0.02911 0.116444,-0.03135 0.143316,-0.04479 0.08285,-0.03807 0.134359,-0.129881 0.02239,-0.04031 0.03135,-0.206016 0,-0.02687 0.01568,-0.138838 0.01344,-0.103008 0.01344,-0.156751 0,-0.304547 0.0045,-0.329179 0.0067,-0.02463 0.04255,-0.08062 -0.01568,-0.01568 -0.04031,-0.06046 -0.0112,-0.04031 -0.0112,-0.114205 v -0.22617 q 0,-0.0022 -0.0067,-0.06942 0.0022,0.02687 0.02015,-0.295589 -0.0022,-0.0045 -0.0112,-0.01568 -0.02463,-0.08733 0.0022,-0.23065 0.009,-0.04031 -0.02911,-0.268717 -0.0022,-0.07166 -0.04031,-0.188102 -0.04927,-0.06046 -0.12764,-0.07614 -0.06718,-0.01567 -0.13212,-0.02911 0,-0.127641 -0.0067,-0.05374 0.0045,-0.03583 0.04479,-0.03807 0.09181,-0.0045 0.29335,-0.02015 0.185863,-0.01791 0.190342,-0.01791 h 0.288871 q 0.08061,0 0.165709,-0.01344 0.08509,-0.01344 0.145555,-0.01344 0.07614,0 0.190342,0.01344 0.07166,0.01568 0.210495,0.04479 0.01344,0.009 0.04479,0.02015 0.214973,0.03359 0.380683,0.203778 0.09181,0.09629 0.163469,0.340375 0.0022,0.03583 0.0067,0.105248 0.0045,0.05598 -0.009,0.167948 -0.02911,0.237367 -0.111966,0.35829 -0.07614,0.111966 -0.293349,0.313504 -0.0022,0.04703 0.01791,0.08285 0.141077,0.270957 0.282153,0.541914 0.167949,0.29335 0.407555,0.499366 0.02015,0.01791 0.165709,0.05822 0.08733,0.02239 0.147795,0.0112 0.08957,-0.01791 0.127641,-0.01344 0.0045,0.01568 0.0045,0.04703 z m -1.227143,-1.916851 q 0,-0.0739 -0.0112,-0.09853 -0.111966,-0.297829 -0.190342,-0.380683 -0.107487,-0.116444 -0.239606,-0.147795 -0.08733,-0.02015 -0.282154,-0.0112 -0.02015,0.0022 -0.0627,0.02463 -0.03583,0.385162 -0.04479,0.622529 0.0112,0.01791 0.02239,0.0515 0,0.03135 -0.02015,0.255282 -0.01344,0.147794 0.0067,0.295589 0.0067,0.0067 0.01791,0.02015 h 0.221692 q 0.03807,0.009 0.08062,0.009 0.13212,0 0.253043,-0.08285 0.123162,-0.08509 0.150034,-0.138837 0.09853,-0.183624 0.09853,-0.418751 z"
           style="font-style:normal;font-variant:normal;font-weight:normal;font-stretch:normal;font-size:4.58611107px;font-family:Ringbearer;-inkscape-font-specification:Ringbearer;fill:#ffcc00;stroke-width:0.26458332"
           id="path178" />
        <path
           d="m 89.183186,55.523955 q -0.009,0.03359 -0.02911,0.09405 0,0 -0.134359,0.02911 -0.08509,0.02015 -0.107487,0.07614 -0.01791,0.02687 -0.04479,0.07614 -0.0045,0.01567 -0.05822,0.25976 l -0.009,0.940512 q -0.01568,0.05822 -0.01568,0.0627 0,0 0.01568,0.04703 l -0.0045,0.347093 q -0.01568,0.07166 0,0.19706 0.01568,0.145555 0.0627,0.237367 0.01568,0.03135 0.07838,0.06942 0.116444,0.06718 0.232888,0.06494 -0.0022,0.02911 -0.02463,0.08509 h -0.25976 q -0.0067,0 -0.07838,-0.0045 -0.06942,-0.0045 -0.0739,-0.0045 -0.0067,0 -0.06046,0.0045 -0.05374,0.0045 -0.05822,0.0045 -0.0045,0 -0.04255,-0.0045 -0.03583,-0.0045 -0.04255,-0.0045 -0.0067,0 -0.03135,0.0045 -0.02239,0.0045 -0.02911,0.0045 l -0.468017,0.0112 q -0.06046,0 -0.06046,-0.04479 0,-0.0515 0.03135,-0.06046 0.07166,-0.01344 0.143316,-0.02463 0.08286,-0.01792 0.107487,-0.06046 0.009,-0.02687 0.02687,-0.08285 0.03135,0.0022 0.09629,0.01344 0.02239,-0.09181 0.02239,-0.118684 0,-0.02463 -0.02239,-0.06718 0.01792,-0.04479 0.0067,-0.07614 -0.009,-0.02239 -0.04255,-0.07614 -0.02911,-0.04703 -0.02911,-0.05374 0,0.01567 0.03807,-0.134359 0.0045,-0.01791 -0.01344,-0.0515 0.03807,-0.0627 0.03807,-0.08509 0,-0.0045 -0.0112,-0.145555 0,-0.0112 -0.01568,-0.04255 -0.01567,-0.03135 -0.01567,-0.03807 0,-0.009 0.01791,-0.03135 -0.0045,0.009 -0.0045,-0.02463 V 56.64585 q 0,-0.0067 0.009,-0.04031 0.0112,-0.03359 0.0112,-0.04031 0,-0.0045 -0.0067,-0.01568 -0.0067,-0.01344 -0.0067,-0.02015 0,0.009 0.0067,-0.100769 0,-0.02239 -0.0045,-0.0739 -0.0045,-0.0515 -0.0045,-0.0515 V 56.12633 q 0,-0.02463 -0.03135,-0.07166 0.009,-0.02463 -0.01344,-0.09181 -0.0022,-0.03135 -0.01791,-0.09405 -0.01792,-0.02015 -0.04479,-0.05822 -0.009,-0.02239 -0.03135,-0.06718 -0.04479,-0.06942 -0.08509,-0.08957 -0.05151,-0.01344 -0.154513,-0.04926 0.0067,-0.03135 0.02463,-0.08062 h 0.02015 q 0.0067,0 0.04031,0.0045 0.03583,0.0045 0.04255,0.0045 z"
           style="font-style:normal;font-variant:normal;font-weight:normal;font-stretch:normal;font-size:4.58611107px;font-family:Ringbearer;-inkscape-font-specification:Ringbearer;fill:#ffcc00;stroke-width:0.26458332"
           id="path180" />
        <path
           d="m 91.375473,57.042208 q 0.01568,0.08733 -0.03359,0.436666 -0.01568,0.109727 -0.16123,0.288872 -0.141077,0.170187 -0.239607,0.214974 -0.156752,0.0739 -0.306786,0.103008 -0.05598,0.0112 -0.333657,0.0112 h -0.953947 q -0.03359,0 -0.07838,-0.02015 0,-0.0067 -0.0067,-0.02463 -0.0045,-0.02015 -0.0045,-0.02911 0.114204,-0.03135 0.138837,-0.04479 0.08061,-0.03807 0.12988,-0.125402 0.02239,-0.04031 0.03135,-0.203777 0,-0.02463 0.01568,-0.136598 0.01344,-0.100769 0.01344,-0.152273 0,-0.297829 0.0045,-0.322461 0.0045,-0.02463 0.04031,-0.07838 -0.01568,-0.01567 -0.04031,-0.05822 -0.0112,-0.04031 -0.0112,-0.114205 v -0.219453 q 0,-0.0067 -0.0067,-0.06942 0.0045,0.02463 0.02239,-0.288872 -0.0045,-0.0045 -0.01344,-0.01568 -0.02239,-0.08733 0.0045,-0.223931 0.0067,-0.04255 -0.02911,-0.264239 -0.0022,-0.06942 -0.03807,-0.185863 -0.04703,-0.05598 -0.125401,-0.0739 -0.06494,-0.01344 -0.127641,-0.02687 0,-0.125401 -0.0067,-0.05374 0.0045,-0.03359 0.04255,-0.03583 0.08957,-0.0045 0.286632,-0.02239 0.179145,-0.01568 0.183623,-0.01568 h 0.264239 q 0.0515,0 0.192581,-0.01791 0.09853,-0.01344 0.250803,0.0045 0.01344,0.0022 0.257521,0.06046 0.127641,0.03135 0.241845,0.167948 0.114205,0.134359 0.13212,0.257521 0.0112,0.07166 0.0112,0.138838 0,0.335896 -0.297828,0.595657 0.0045,0.0022 0.01568,0.0112 0.165709,-0.009 0.35829,0.181384 0.138837,0.136598 0.176906,0.351572 z M 90.99479,55.888963 q -0.100769,0.009 -0.273196,-0.02687 -0.04703,-0.02911 -0.07838,-0.107487 -0.02687,-0.06494 -0.0515,-0.127641 -0.02239,-0.04255 -0.09629,-0.09405 -0.0739,-0.0515 -0.125401,-0.05822 -0.237367,-0.03359 -0.284393,0.0112 -0.009,0.163469 -0.03359,0.492648 -0.0022,0.009 0.009,0.02463 0.0112,0.01567 0.0112,0.01791 0,0.0045 -0.02015,0.170188 -0.01344,0.103008 0.0067,0.266478 0.07614,0.02687 0.08061,0.02463 0.277675,-0.0112 0.367248,-0.04255 0.212734,-0.07166 0.212734,-0.42323 0,-0.04255 -0.0022,-0.08062 0.009,-0.0112 0.02015,-0.01791 0.103008,-0.0045 0.257521,-0.02911 z m -0.08733,1.350305 q -0.0022,-0.02911 -0.114205,-0.282153 -0.02239,-0.04703 -0.06718,-0.120923 -0.114205,-0.120923 -0.246324,-0.154513 -0.09629,-0.02687 -0.291111,-0.01791 -0.08285,0.0045 -0.138837,0.02911 -0.01344,0.111965 -0.02687,0.273196 -0.0022,0.109726 0.0045,0.235128 0.0067,0.167948 0.0067,0.174666 0.0045,0.192581 0.06046,0.461298 0.0045,0.02463 0.06942,0.07838 0.12988,0 0.261999,0.0022 0.147795,-0.0022 0.244085,-0.08285 0.06718,-0.0515 0.152274,-0.141077 0.09853,-0.219452 0.08509,-0.45458 z"
           style="font-style:normal;font-variant:normal;font-weight:normal;font-stretch:normal;font-size:4.58611107px;font-family:Ringbearer;-inkscape-font-specification:Ringbearer;fill:#ffcc00;stroke-width:0.26458332"
           id="path182" />
        <path
           d="m 94.338083,55.284348 q 0,0.08286 -0.02911,0.08733 -0.04255,0.0045 -0.125401,0.02687 -0.03583,-0.0022 -0.09853,0.02463 -0.07614,0.06942 -0.08957,0.199299 -0.0067,0.0112 -0.01568,0.03583 -0.0112,0.125401 -0.0067,0.156751 0.03135,0.203778 0.03135,0.206017 v 0.172427 q 0,0.009 -0.009,0.03583 -0.0067,0.02463 -0.009,0.03359 -0.0022,0.01567 0.0022,0.06046 0.02015,0.179145 0.02015,0.468016 0,0.0022 -0.009,0.01568 -0.0067,0.0112 -0.0067,0.01791 0,0.217213 0.0045,0.172427 -0.009,0.118684 -0.04255,0.351572 -0.01344,0.06942 -0.07838,0.212735 -0.0627,0.141077 -0.107487,0.201538 -0.05374,0.06942 -0.197059,0.172427 -0.114205,0.08285 -0.230649,0.16347 -0.03359,-0.02463 -0.192581,0.01791 -0.03135,0.01792 -0.09853,0.04926 -0.0112,0.0045 -0.03583,-0.0067 -0.02463,-0.0112 -0.02687,-0.0112 h -0.165709 q 0.03135,0 -0.114205,-0.03135 -0.0515,-0.0022 -0.147794,-0.01791 -0.05822,-0.03135 -0.179145,-0.07838 -0.03583,-0.0022 -0.107487,-0.0112 -0.02463,-0.0067 -0.08733,-0.04255 -0.403076,-0.232888 -0.42099,-0.797195 l -0.02015,-0.707622 q -0.01568,-0.29335 -0.0627,-0.873332 -0.01344,-0.127641 -0.09629,-0.179145 -0.02463,-0.01792 -0.212735,-0.06494 -0.0067,-0.01344 -0.0067,-0.02463 0,-0.04255 0.07614,-0.03135 0.174666,0.02239 0.400837,0.02239 h 0.217213 q 0.0067,0 0.0627,-0.009 0.05598,-0.009 0.08509,-0.009 0.107487,0.0067 0.322461,-0.009 0.01791,0.02239 0.01791,0.04031 0,0.03583 -0.138837,0.05822 -0.0112,0.009 -0.04031,0.02911 -0.01568,0.0067 -0.04479,0.02463 -0.04031,0.03135 -0.04479,0.05598 -0.04031,0.203777 -0.09629,0.441144 0.0022,-0.0067 0.02239,0.0739 0.0022,0 -0.01791,0.116445 0.009,0.03807 -0.0112,0.179144 0.0045,-0.02687 0.02463,0.16571 0.0022,0.02911 -0.0112,0.197059 0.0022,0.0112 0.009,0.02911 0,0.0112 -0.01568,0.165709 -0.0045,0.04926 0.02015,0.212735 0.01344,0.01791 0.02911,0.05374 0.0022,0.0067 0.01344,0.152274 -0.0022,0.02687 -0.0022,0.08062 0.0112,0.02463 0.02911,0.06942 0.0067,0.01792 -0.0022,0.05598 0.02687,0.03583 0.07614,0.107487 0.02687,0.04926 0.107487,0.134359 0.06046,0.04702 0.120923,0.09405 0.08509,0.06046 0.152273,0.07166 0.06046,0.0067 0.141077,0.0067 h 0.297828 q 0.123162,0 0.25976,-0.143316 0.12988,-0.134359 0.167949,-0.279914 0.01791,-0.123162 0.04255,-0.300068 0.01791,-0.116444 0,-0.315743 l 0.0045,-1.059194 q -0.01568,-0.13212 -0.06942,-0.306786 -0.02239,-0.07166 -0.170188,-0.111966 -0.02687,-0.0067 -0.09405,-0.02015 -0.01344,-0.02239 -0.01344,-0.05822 -0.0112,0 0.06942,-0.009 0.167948,-0.02015 0.320221,0.01344 0.02687,-0.0067 0.0739,-0.009 0.08509,0.01568 0.295589,-0.0067 0.009,-0.0022 0.03359,0.0045 0.02463,0.0045 0.03359,0.0045 0.02463,0 0.217213,-0.01792 z"
           style="font-style:normal;font-variant:normal;font-weight:normal;font-stretch:normal;font-size:4.58611107px;font-family:Ringbearer;-inkscape-font-specification:Ringbearer;fill:#ffcc00;stroke-width:0.26458332"
           id="path184" />
        <path
           d="m 96.570677,55.31122 q -0.01344,0.08509 -0.03135,0.203778 v 0.51952 q -0.0112,0 -0.04031,0.0067 -0.02911,0.0067 -0.04031,0.0067 -0.0045,-0.01791 -0.03583,-0.266478 -0.01792,-0.143316 -0.13212,-0.219453 -0.04926,-0.03583 -0.232888,0.0045 -0.09181,0.009 -0.264239,0.04255 -0.06046,0.02015 -0.07614,0.07614 -0.03807,0.143316 -0.009,0.414273 0.03135,0.270957 -0.01567,0.745691 0,-0.0022 0.02911,0.309025 -0.009,0.107487 -0.0045,0.322461 0.02463,0.114205 0.07166,0.347093 0.02239,0.111966 0.150034,0.143316 0.103009,0.02463 0.206017,0.04703 0,0.03359 -0.0515,0.09853 h -1.26969 q -0.01792,0 -0.01792,-0.02687 0,-0.0067 0.0022,-0.03583 0.06942,-0.01568 0.203777,-0.06494 0.116444,-0.0627 0.172427,-0.150034 0.01568,-0.02463 0.03135,-0.201538 0.009,-0.309025 0.02239,-0.647161 V 56.18007 h 0.06046 q 0.0045,-0.0022 0.01568,-0.02015 -0.03135,-0.0739 -0.07614,-0.212735 -0.0045,-0.02687 -0.03583,-0.342615 h -0.414273 q -0.06494,0 -0.161231,0.07166 -0.09629,0.07166 -0.105247,0.116444 -0.04703,0.199299 -0.09181,0.275436 -0.02239,0.03807 -0.100769,0.03807 0,-0.009 -0.009,-0.05598 -0.0067,-0.04031 -0.0022,-0.05822 0.02687,-0.09181 0.0515,-0.284393 0.02911,-0.232888 0.04479,-0.313503 0,0 0.07166,-0.09405 -0.06718,-0.0067 0.409794,-0.0067 0.138837,0 0.42099,0.02463 0.284393,0.02463 0.273197,0.02463 h 0.369486 q -0.0022,0 0.134359,-0.02239 0.147794,-0.02239 0.284392,-0.02911 0.05151,-0.0067 0.103009,-0.01344 0.06718,-0.0067 0.08957,0.03359 z"
           style="font-style:normal;font-variant:normal;font-weight:normal;font-stretch:normal;font-size:4.58611107px;font-family:Ringbearer;-inkscape-font-specification:Ringbearer;fill:#ffcc00;stroke-width:0.26458332"
           id="path186" />
        <path
           d="m 98.930912,57.366909 q -0.0067,0.116444 -0.02911,0.329179 -0.02687,0.05822 -0.06718,0.163469 -0.009,0.04479 -0.03359,0.125402 -0.009,0.02463 -0.05822,0.08285 -0.05822,0.07166 -0.09405,0.07166 h -0.571025 q -0.01568,0 -0.201538,-0.0067 -0.185863,-0.0067 -0.201538,-0.0067 h -0.344854 q -0.01344,0 -0.138837,-0.01344 -0.123163,-0.0112 -0.138838,-0.0112 h -0.338136 l -0.02911,-0.03135 q 0.02463,-0.03135 0.19482,-0.134359 0.116444,-0.0739 0.116444,-0.179145 v -0.707623 q 0,-0.172427 0.05374,-0.463537 -0.02911,-0.08957 -0.0112,-0.223931 -0.04031,-0.03359 -0.04031,-0.09405 0,-0.0045 0.04479,-0.183623 0.0022,-0.01567 -0.02239,-0.0627 -0.03135,-0.05598 -0.03359,-0.05822 -0.01568,-0.04703 -0.01344,-0.147795 0,-0.138837 0,-0.152273 -0.0067,-0.07614 -0.03135,-0.123162 -0.03359,-0.06494 -0.109726,-0.103008 -0.06718,-0.02911 -0.134359,-0.06046 0.03135,-0.0739 0.06718,-0.07838 0.06942,0.009 0.199299,0.0045 0.143316,-0.03359 0.138837,-0.03359 h 0.396359 q 0.009,0 0.134358,0.01568 0.127641,0.01568 0.192581,0.01792 0.02687,0 0.447863,-0.02911 0.09629,-0.0067 0.503845,0.01344 0.03583,0.02463 0.03583,0.06046 0,0.02015 -0.01568,0.05822 -0.01344,0.03807 -0.01344,0.05598 -0.0022,0.0739 -0.04703,0.48817 -0.0067,0.01344 -0.06494,0.04255 -0.01344,-0.02239 -0.08285,-0.239606 -0.04479,-0.141077 -0.165709,-0.154513 -0.04927,-0.0112 -0.100769,-0.02239 -0.06942,-0.01568 -0.107487,-0.0045 -0.09853,0.02911 -0.427709,0.0067 -0.181384,-0.01344 -0.273196,0.0067 -0.02687,0.0067 -0.03583,0.0515 0.08061,0.262 0.0067,0.463538 0.0045,-0.01344 0.0045,0.111966 0,0.03135 -0.0112,0.12988 -0.0112,0.08062 -0.0045,0.12988 0.0022,0.02239 0.04255,0.05822 h 0.844221 q 0.04031,-0.01344 0.07838,-0.02687 0.0627,-0.02239 0.08733,-0.06942 0.02239,-0.05822 0.08285,-0.161231 0.07166,0 0.09181,0.04927 -0.009,0.127641 -0.01791,0.32694 -0.0022,0.132119 -0.03135,0.387401 -0.009,0.03807 -0.08957,0.02463 -0.02911,-0.05374 -0.103008,-0.141077 -0.136598,-0.103008 -0.248564,-0.103008 h -0.309025 q -0.02911,0 -0.114205,-0.0112 -0.08509,-0.0112 -0.127641,-0.0112 -0.118683,0 -0.150034,0.06942 -0.03583,0.07838 -0.03583,0.120923 0,0.04031 0.01568,0.152274 0.01568,0.111965 0.01344,0.172427 -0.0022,0.03135 -0.02239,0.118683 -0.01791,0.08509 -0.01791,0.134359 0,0.03807 0.009,0.06942 0.01568,0.05374 0.120923,0.12988 0.107487,0.07614 0.183623,0.08733 0.0112,0.0045 0.02239,0.009 0.02239,0.0067 0.04031,0.0067 h 0.371726 q 0.125401,0 0.210495,-0.04031 0.118684,-0.05374 0.230649,-0.179145 0.123163,-0.138837 0.13212,-0.264238 0.05822,-0.03807 0.145555,-0.01344 z"
           style="font-style:normal;font-variant:normal;font-weight:normal;font-stretch:normal;font-size:4.58611107px;font-family:Ringbearer;-inkscape-font-specification:Ringbearer;fill:#ffcc00;stroke-width:0.26458332"
           id="path188" />
        <path
           d="m 102.13985,55.862091 q 0.0202,0.09405 -0.0246,0.416512 -0.0157,0.111966 -0.12988,0.268717 -0.1142,0.154513 -0.23065,0.23065 -0.10524,0.07166 -0.29558,0.103008 -0.047,0.02015 -0.13884,0.04479 -0.17691,0.01568 -0.44786,0.01568 -0.0157,0 -0.0381,0.02687 0.009,0.08509 0.0202,0.541914 0.004,0.08957 0.0358,0.232888 0,0.04031 0.0224,0.118684 0.0448,0.08061 0.15004,0.114205 0.0828,0.02463 0.16571,0.04926 0.002,0.02463 -0.002,0.05822 -0.0649,0.02687 -0.13212,0.02687 h -0.23065 q -0.004,0 -0.0605,-0.0112 -0.0538,-0.0112 -0.0784,-0.0112 -0.0672,0 -0.21273,0.0112 -0.14332,0.0112 -0.14108,0.0112 h -0.22169 q -0.0336,0 -0.0806,-0.02239 0,-0.0045 -0.007,-0.02463 -0.004,-0.02015 -0.004,-0.02911 0.11644,-0.03135 0.14107,-0.04479 0.0806,-0.03807 0.13212,-0.12764 0.0224,-0.04031 0.0291,-0.203778 0.002,-0.02687 0.0157,-0.138837 0.0134,-0.100769 0.0134,-0.154513 0,-0.277674 0,-0.277674 -0.002,-0.103009 -0.007,-0.206017 0.002,-0.116444 0.0537,-0.199299 -0.0179,-0.01568 -0.0403,-0.05822 -0.0179,-0.120923 -0.0179,-0.250803 0,-0.0022 0.0179,-0.07614 0.0157,-0.06046 0.002,-0.09629 -0.0358,-0.09629 -0.009,-0.241846 0.009,-0.04255 -0.0291,-0.266478 0,-0.07166 -0.0381,-0.188102 -0.047,-0.05822 -0.12541,-0.07614 -0.0649,-0.01344 -0.12988,-0.02687 0,-0.127641 -0.007,-0.05374 0.004,-0.03583 0.0448,-0.03807 0.0896,-0.0045 0.28663,-0.02015 0.18139,-0.01567 0.18811,-0.01567 h 0.28215 q 0.0806,0 0.16347,-0.01344 0.0851,-0.01567 0.14332,-0.01567 0.0739,0 0.1881,0.01344 0.0694,0.01568 0.20601,0.04479 0.0134,0.009 0.0426,0.02015 0.21274,0.03135 0.37397,0.201538 0.11644,0.120923 0.16123,0.338136 z m -0.47474,0.250803 q 0,-0.07166 -0.007,-0.09629 -0.11196,-0.29335 -0.1881,-0.378444 -0.10525,-0.114205 -0.23513,-0.143316 -0.0851,-0.02015 -0.27767,-0.0112 -0.0202,0 -0.0605,0.02463 -0.0358,0.378443 -0.0448,0.613571 0.0112,0.01792 0.0202,0.0515 0,0.03135 -0.0202,0.255282 -0.0112,0.143316 0.009,0.291111 0.007,0.0067 0.0179,0.01791 h 0.21722 q 0.0358,0.0112 0.0784,0.0112 0.12988,0 0.24857,-0.08286 0.11868,-0.08286 0.14779,-0.136598 0.094,-0.183624 0.094,-0.416512 z"
           style="font-style:normal;font-variant:normal;font-weight:normal;font-stretch:normal;font-size:4.58611107px;font-family:Ringbearer;-inkscape-font-specification:Ringbearer;fill:#ffcc00;stroke-width:0.26458332"
           id="path190" />
        <path
           d="m 104.57846,58.096924 q -0.0403,0.01792 -0.11869,0.0112 -0.12988,-0.0112 -0.12092,-0.0112 h -0.17914 q -0.3247,0 -0.50609,0.03359 -0.10077,0.01792 -0.13436,-0.02015 -0.004,-0.06718 0.007,-0.114205 0.0448,-0.0045 0.1254,-0.03135 0.0336,-0.02015 0.0515,-0.06718 0.0179,-0.04703 0.007,-0.0739 -0.0291,-0.12988 -0.0896,-0.38964 -0.004,-0.01568 -0.0493,-0.127641 -0.0358,-0.08957 -0.0358,-0.136598 -0.002,-0.01344 -0.0291,-0.01344 -0.0381,0 -0.36725,0.01792 l -0.4725,0.0067 q -0.0515,-0.0022 -0.0963,0.09405 -0.0224,0.04926 -0.0627,0.145555 -0.0515,0.156752 -0.0493,0.185863 0,-0.01568 -0.0224,0.134359 -0.0157,0.105247 0,0.143316 0.009,0.02239 0.0672,0.07166 0.0605,0.04926 0.10301,0.06494 0.0112,0.0045 0.0358,0.0112 0.0179,0.03135 0.0291,0.04926 -0.047,0.01344 -0.12988,0.02911 -0.12988,-0.0112 -0.37396,-0.01791 -0.0515,0.01567 -0.15899,0.03135 -0.004,0 -0.16347,-0.02015 -0.004,-0.0112 -0.004,-0.02015 0,-0.02687 0.0672,-0.07614 0.0246,-0.03359 0.0829,-0.08733 0.0515,-0.03359 0.0896,-0.114205 0.0381,-0.08285 0.11645,-0.255282 0.0336,-0.107487 0.10077,-0.3247 0.0448,-0.103008 0.1142,-0.313504 0.0515,-0.154512 0.15004,-0.459059 0.009,-0.009 0.0224,-0.02687 0.007,0.03583 0.0179,0.03583 0.0157,0 0.0403,-0.09629 0.0224,-0.08733 0.0224,-0.125401 0,-0.0067 -0.002,-0.0067 -0.004,0.0067 -0.0157,0.04031 0,-0.02239 0.004,-0.0627 0.0358,-0.09405 0.10077,-0.277675 0.0157,-0.08733 0.0963,-0.25976 0.0112,-0.03807 0.0336,-0.116444 0.0202,-0.06718 0.0784,-0.201539 0.007,-0.02911 0.0336,-0.08285 0.0134,-0.01568 0.10525,-0.009 0.0873,0.0022 0.26424,0.01568 0.0582,0.167948 0.20826,0.535195 0.004,0.04255 0.0246,0.125402 0.0358,0.105248 0.094,0.19482 -0.0112,0.01568 0.0179,0.116444 0.0358,0.08062 0.10525,0.237367 0.047,0.154513 0.14556,0.429948 0.007,0.0627 0.0425,0.179145 0,0.01792 0.0112,0.05598 0.0269,0.05822 0.0963,0.223931 0.0246,0.03583 0.0672,0.109727 -0.002,0.01791 0.004,0.04926 0.0313,0.09181 0.0963,0.257521 0.0224,0.03807 0.0761,0.138838 0.0134,0.02687 0.12764,0.06942 0.0336,0.0112 0.0985,0.03359 z m -1.15101,-1.173399 q -0.002,-0.0022 -0.16347,-0.445623 -0.0269,-0.08957 -0.0829,-0.266478 -0.0269,-0.05374 -0.0717,-0.154513 -0.0134,-0.04702 -0.047,-0.134359 -0.0806,0.183624 -0.17914,0.371726 -0.0134,0.01344 -0.0314,0.04255 -0.007,0.03359 -0.0246,0.103009 -0.0157,0.03135 -0.0381,0.08957 -0.002,0.03807 -0.0112,0.09853 -0.0157,0.02239 -0.0358,0.0627 -0.0112,0.0515 -0.0336,0.145556 -0.0112,0.01791 -0.0291,0.04927 0.004,-0.02463 0.004,0.03807 z"
           style="font-style:normal;font-variant:normal;font-weight:normal;font-stretch:normal;font-size:4.58611107px;font-family:Ringbearer;-inkscape-font-specification:Ringbearer;fill:#ffcc00;stroke-width:0.26458332"
           id="path192" />
        <path
           d="m 106.78418,55.304502 q 0.004,0.01792 0.004,0.04031 0,0.04926 -0.0224,0.172427 -0.0202,0.123162 -0.0202,0.183624 0,0.03135 0.002,0.05822 -0.0112,0.04031 -0.0202,0.111965 0.0179,0.08957 0.0202,0.06942 -0.007,0.01344 -0.0202,0.03359 0,0.02239 0.0134,0.12764 -0.056,0.05374 -0.10077,0.05374 -0.0179,0 -0.0403,-0.02687 0.0202,-0.132119 0.0134,-0.16347 -0.007,-0.03583 -0.0269,-0.100769 -0.0448,-0.09853 -0.16571,-0.217213 -0.047,-0.04479 -0.21945,-0.118683 -0.0202,-0.009 -0.14556,-0.03135 -0.0806,-0.01344 -0.23736,-0.01344 -0.44339,0 -0.69643,0.235128 -0.0313,0.01568 -0.0896,0.06942 -0.19482,0.268717 -0.22169,0.526238 -0.0112,0.107487 -0.0112,0.353811 v 0.147795 q 0,-0.01344 0.0314,0.118683 0.002,0.06942 0.0224,0.188103 0.0134,0.0112 0.0448,0.06718 0.002,0.02911 0.0157,0.07614 0.0314,0.04255 0.0963,0.12764 0.009,0.02687 0.0314,0.07614 0.10077,0.183624 0.31127,0.304546 0.094,0.05374 0.18586,0.07614 0.44115,0.103008 0.56655,0.103008 0.0582,0 0.1142,-0.01344 0.0269,-0.0045 0.0784,-0.02687 0.0112,-0.08733 0.0112,-0.08733 0,-0.03135 -0.0291,-0.04255 -0.0403,-0.01344 -0.0537,-0.03583 -0.0224,-0.03583 -0.002,-0.138838 0,0 0,-0.35605 -0.0134,-0.12988 -0.0381,-0.203778 -0.0134,-0.0112 -0.0358,-0.04255 -0.0381,-0.118683 -0.16347,-0.152273 -0.0515,-0.01344 -0.21945,-0.01791 -0.007,-0.0045 -0.0201,-0.01567 v -0.05822 q 0.056,-0.01791 0.18362,-0.01791 0.009,0 0.15675,0.01344 0.1478,0.0112 0.15675,0.0112 0.0112,0 0.0381,-0.009 0.0269,-0.0112 0.0403,-0.01344 0.1366,-0.0112 0.15227,-0.0112 0.31575,0 0.26872,0.0022 v 0.09629 q 0,0.0067 -0.0202,0.04703 -0.0246,0.04703 -0.0291,0.06494 -0.0381,0.154513 -0.0448,0.313504 -0.009,0.201538 -0.009,0.277674 0,0.154513 0.0336,0.42547 -0.10301,0.05374 -0.53967,0.143316 -0.0358,-0.0022 -0.10973,0.0045 -0.10077,0.02239 -0.14107,0.02239 -0.0112,0 -0.0336,-0.0067 -0.0224,-0.0067 -0.0314,-0.0067 -0.23065,-0.0112 -0.38293,-0.03807 -0.0582,-0.02239 -0.17242,-0.05598 -0.22617,-0.04479 -0.49937,-0.286632 -0.28439,-0.253042 -0.34933,-0.48593 -0.0202,-0.0515 -0.0515,-0.154513 -0.0179,-0.03359 -0.047,-0.100769 -0.0269,-0.109726 -0.0269,-0.185863 0,0.0067 0.0112,-0.08285 0.0112,-0.07614 0.002,-0.107487 -0.009,-0.03583 -0.009,-0.07614 0,-0.07614 0.0381,-0.217213 0.0448,-0.174666 0.0537,-0.235128 0.21945,-0.396358 0.26647,-0.396358 0.009,0 0.0134,0.009 0.004,0.0067 0.0157,0.0067 0.0381,0 0.0605,-0.01791 0.009,-0.02687 0.0358,-0.0739 0.20825,-0.230649 0.25304,-0.230649 0.0112,0 0.0157,0.0045 0.004,0.0045 0.0134,0.0045 0.009,0 0.047,-0.02911 0.0403,-0.03135 0.0515,-0.03135 0.009,0 0.0246,0.009 0.0179,0.009 0.0269,0.009 0.0112,0 0.1993,-0.04702 0.1881,-0.04703 0.1993,-0.04703 h 0.5755 q 0.0112,0 0.20602,0.02239 0.19482,0.02015 0.20602,0.02015 0.004,0 0.0784,0 0.0761,0 0.10973,0 z"
           style="font-style:normal;font-variant:normal;font-weight:normal;font-stretch:normal;font-size:4.58611107px;font-family:Ringbearer;-inkscape-font-specification:Ringbearer;fill:#ffcc00;stroke-width:0.26458332"
           id="path194" />
        <path
           d="m 109.16009,57.366909 q -0.007,0.116444 -0.0291,0.329179 -0.0269,0.05822 -0.0672,0.163469 -0.009,0.04479 -0.0336,0.125402 -0.009,0.02463 -0.0582,0.08285 -0.0582,0.07166 -0.0941,0.07166 h -0.57103 q -0.0157,0 -0.20154,-0.0067 -0.18586,-0.0067 -0.20153,-0.0067 h -0.34486 q -0.0134,0 -0.13884,-0.01344 -0.12316,-0.0112 -0.13883,-0.0112 h -0.33814 l -0.0291,-0.03135 q 0.0246,-0.03135 0.19482,-0.134359 0.11644,-0.0739 0.11644,-0.179145 v -0.707623 q 0,-0.172427 0.0538,-0.463537 -0.0291,-0.08957 -0.0112,-0.223931 -0.0403,-0.03359 -0.0403,-0.09405 0,-0.0045 0.0448,-0.183623 0.002,-0.01567 -0.0224,-0.0627 -0.0314,-0.05598 -0.0336,-0.05822 -0.0157,-0.04703 -0.0134,-0.147795 0,-0.138837 0,-0.152273 -0.007,-0.07614 -0.0313,-0.123162 -0.0336,-0.06494 -0.10973,-0.103008 -0.0672,-0.02911 -0.13435,-0.06046 0.0314,-0.0739 0.0672,-0.07838 0.0694,0.009 0.1993,0.0045 0.14332,-0.03359 0.13884,-0.03359 h 0.39636 q 0.009,0 0.13436,0.01568 0.12764,0.01568 0.19258,0.01792 0.0269,0 0.44786,-0.02911 0.0963,-0.0067 0.50385,0.01344 0.0358,0.02463 0.0358,0.06046 0,0.02015 -0.0157,0.05822 -0.0134,0.03807 -0.0134,0.05598 -0.002,0.0739 -0.047,0.48817 -0.007,0.01344 -0.0649,0.04255 -0.0134,-0.02239 -0.0829,-0.239606 -0.0448,-0.141077 -0.1657,-0.154513 -0.0493,-0.0112 -0.10077,-0.02239 -0.0694,-0.01568 -0.10749,-0.0045 -0.0985,0.02911 -0.42771,0.0067 -0.18138,-0.01344 -0.2732,0.0067 -0.0269,0.0067 -0.0358,0.0515 0.0806,0.262 0.007,0.463538 0.004,-0.01344 0.004,0.111966 0,0.03135 -0.0112,0.12988 -0.0112,0.08062 -0.004,0.12988 0.002,0.02239 0.0425,0.05822 h 0.84422 q 0.0403,-0.01344 0.0784,-0.02687 0.0627,-0.02239 0.0873,-0.06942 0.0224,-0.05822 0.0829,-0.161231 0.0717,0 0.0918,0.04927 -0.009,0.127641 -0.0179,0.32694 -0.002,0.132119 -0.0314,0.387401 -0.009,0.03807 -0.0896,0.02463 -0.0291,-0.05374 -0.10301,-0.141077 -0.13659,-0.103008 -0.24856,-0.103008 h -0.30902 q -0.0291,0 -0.11421,-0.0112 -0.0851,-0.0112 -0.12764,-0.0112 -0.11868,0 -0.15003,0.06942 -0.0358,0.07838 -0.0358,0.120923 0,0.04031 0.0157,0.152274 0.0157,0.111965 0.0134,0.172427 -0.002,0.03135 -0.0224,0.118683 -0.0179,0.08509 -0.0179,0.134359 0,0.03807 0.009,0.06942 0.0157,0.05374 0.12092,0.12988 0.10749,0.07614 0.18362,0.08733 0.0112,0.0045 0.0224,0.009 0.0224,0.0067 0.0403,0.0067 h 0.37173 q 0.1254,0 0.2105,-0.04031 0.11868,-0.05374 0.23064,-0.179145 0.12317,-0.138837 0.13212,-0.264238 0.0582,-0.03807 0.14556,-0.01344 z"
           style="font-style:normal;font-variant:normal;font-weight:normal;font-stretch:normal;font-size:4.58611107px;font-family:Ringbearer;-inkscape-font-specification:Ringbearer;fill:#ffcc00;stroke-width:0.26458332"
           id="path196" />
      </g>
    </g>
  </g>
</svg>
